<svg width="20" height="20" viewBox="0 0 20 20" fill="none" xmlns="http://www.w3.org/2000/svg">
<path fill-rule="evenodd" clip-rule="evenodd" d="M12.3784 17.2057C12.0852 16.9131 12.0847 16.4382 12.3773 16.145L16.5523 11.9617C16.8449 11.6685 17.3198 11.668 17.613 11.9606C17.9062 12.2532 17.9067 12.7281 17.6141 13.0213L13.4391 17.2046C13.1465 17.4978 12.6716 17.4983 12.3784 17.2057Z" fill="white"/>
<path fill-rule="evenodd" clip-rule="evenodd" d="M2.16602 12.4917C2.16602 12.0775 2.5018 11.7417 2.91602 11.7417L17.0827 11.7417C17.4969 11.7417 17.8327 12.0775 17.8327 12.4917C17.8327 12.9059 17.4969 13.2417 17.0827 13.2417L2.91602 13.2417C2.5018 13.2417 2.16602 12.9059 2.16602 12.4917Z" fill="white"/>
<path fill-rule="evenodd" clip-rule="evenodd" d="M2.38621 8.03916C2.09303 7.74656 2.09256 7.27168 2.38516 6.9785L6.56016 2.79517C6.85276 2.50198 7.32763 2.50151 7.62082 2.79411C7.914 3.08671 7.91448 3.56158 7.62187 3.85477L3.44687 8.0381C3.15427 8.33129 2.6794 8.33176 2.38621 8.03916Z" fill="white"/>
<path fill-rule="evenodd" clip-rule="evenodd" d="M2.16602 7.5083C2.16602 7.09409 2.5018 6.7583 2.91602 6.7583L17.0827 6.7583C17.4969 6.7583 17.8327 7.09409 17.8327 7.5083C17.8327 7.92251 17.4969 8.2583 17.0827 8.2583L2.91602 8.2583C2.5018 8.2583 2.16602 7.92251 2.16602 7.5083Z" fill="white"/>
</svg>
