<svg width="26" height="17" viewBox="0 0 26 17" fill="none" xmlns="http://www.w3.org/2000/svg">
<path fill-rule="evenodd" clip-rule="evenodd" d="M16.9989 17C21.6933 17 25.4989 13.1944 25.4989 8.5C25.4989 3.80558 21.6933 0 16.9989 0C13.3369 0 10.2158 2.31576 9.02005 5.56275C9.51922 5.70878 9.96554 5.97861 10.3235 6.33675C11.492 6.9955 13.299 7.47418 15.0619 6.45726C15.6221 5.83287 16.4353 5.44008 17.3402 5.44008C19.0302 5.44008 20.4002 6.81009 20.4002 8.50008C20.4002 10.1901 19.0302 11.5601 17.3402 11.5601C16.6491 11.5601 16.0115 11.331 15.4992 10.9446C14.3085 10.3473 12.1542 9.8077 10.0534 10.9035C9.75015 11.1428 9.40045 11.326 9.02006 11.4373C10.2158 14.6843 13.3369 17 16.9989 17Z" fill="#E96B6B"/>
<path fill-rule="evenodd" clip-rule="evenodd" d="M16.4789 5.56298C15.2833 2.31588 12.1621 0 8.5 0C3.80558 0 0 3.80558 0 8.5C0 13.1944 3.80558 17 8.5 17C12.162 17 15.2832 14.6842 16.4789 11.4372C16.1208 11.3323 15.7899 11.1637 15.4993 10.9446C14.3086 10.3473 12.1543 9.8077 10.0535 10.9035C9.53251 11.3146 8.8746 11.56 8.15938 11.56C6.46939 11.56 5.09938 10.19 5.09938 8.50002C5.09938 6.81003 6.46939 5.44002 8.15938 5.44002C9.00461 5.44002 9.76981 5.78272 10.3236 6.33675C11.4921 6.9955 13.299 7.47418 15.062 6.45726C15.437 6.03924 15.9255 5.72502 16.4789 5.56298Z" fill="#00FFF0"/>
</svg>
