<svg width="63" height="42" viewBox="0 0 63 42" fill="none" xmlns="http://www.w3.org/2000/svg">
<path fill-rule="evenodd" clip-rule="evenodd" d="M31.9542 4.23358C31.2993 3.80235 30.8911 3.60411 30.8911 3.60411C30.8911 3.60411 31.3217 3.38826 32.0283 3.06221C34.209 2.05594 39.0186 0 41.9129 0C53.4162 0 62.7414 9.32525 62.7414 20.8285C62.7414 32.3318 53.4162 41.6571 41.9129 41.6571C38.4969 41.6571 34.8638 40.2657 31.9302 38.6846C31.5729 38.492 31.226 38.2966 30.8911 38.1006C31.2362 37.905 31.571 37.7013 31.8957 37.49C35.4931 35.1493 37.8573 31.8841 39.3005 28.6309C39.4413 28.3136 39.5733 27.9964 39.6969 27.6802C39.9094 27.7749 40.1271 27.8601 40.3495 27.9351C41.1025 28.1892 41.909 28.3268 42.7477 28.3268C46.8889 28.3268 50.246 24.9698 50.246 20.8286C50.246 16.6874 46.8889 13.3303 42.7477 13.3303C41.9165 13.3303 41.1168 13.4656 40.3696 13.7153C40.133 13.7943 39.9017 13.8849 39.6762 13.9862C39.549 13.6607 39.4165 13.3439 39.2792 13.0357C37.0758 8.0888 33.669 5.36262 31.9542 4.23358ZM33.0435 3.73172C33.5746 4.10944 34.1986 4.59566 34.8682 5.20091C36.6332 6.79643 38.7203 9.22483 40.2452 12.6739C41.0374 12.4311 41.878 12.3006 42.7477 12.3006C47.4576 12.3006 51.2757 16.1187 51.2757 20.8286C51.2757 25.5385 47.4576 29.3566 42.7477 29.3566C41.8862 29.3566 41.0532 29.2285 40.2676 28.9901C38.8237 32.2681 36.4762 35.5863 32.9203 38.0427C35.6767 39.4659 38.92 40.6273 41.9129 40.6273C52.8475 40.6273 61.7117 31.7631 61.7117 20.8285C61.7117 9.89396 52.8475 1.02975 41.9129 1.02975C40.2175 1.02975 37.6314 1.85414 35.344 2.75953C34.4835 3.10008 33.6918 3.44109 33.0435 3.73172Z" fill="#E96B6B"/>
<path fill-rule="evenodd" clip-rule="evenodd" d="M40.6389 13.6317C40.5195 13.3075 40.3924 12.9872 40.2576 12.6709C37.0838 5.22196 29.6953 0 21.0872 0C9.58391 0 0.258667 9.32525 0.258667 20.8285C0.258667 32.3318 9.58391 41.6571 21.0872 41.6571C29.6953 41.6571 37.0837 36.4351 40.2575 28.9863C40.3923 28.6699 40.5195 28.3496 40.6388 28.0255C40.3133 27.9301 39.9969 27.8133 39.6913 27.6766C39.1719 27.4442 38.6837 27.1545 38.2349 26.8155C35.3149 25.3529 30.0381 24.0344 24.8929 26.7204C23.6168 27.7265 22.0058 28.3268 20.2547 28.3268C16.1135 28.3268 12.7564 24.9697 12.7564 20.8285C12.7564 16.6873 16.1135 13.3302 20.2547 13.3302C22.3253 13.3302 24.1999 14.1695 25.5569 15.5265C28.4188 17.1406 32.8449 18.3145 37.164 15.8265C37.8629 15.0466 38.7228 14.4138 39.6913 13.9805C39.9969 13.8439 40.3133 13.727 40.6389 13.6317ZM39.2918 13.0312C36.2642 5.97214 29.2517 1.02975 21.0872 1.02975C10.1526 1.02975 1.28841 9.89396 1.28841 20.8285C1.28841 31.7631 10.1526 40.6273 21.0872 40.6273C29.2517 40.6273 36.2642 35.6849 39.2917 28.6259C38.7234 28.3735 38.188 28.0609 37.6937 27.6964C34.9454 26.3438 30.1261 25.1925 25.4506 27.5913C24.0121 28.6979 22.2089 29.3565 20.2547 29.3565C15.5448 29.3565 11.7267 25.5384 11.7267 20.8285C11.7267 16.1186 15.5448 12.3005 20.2547 12.3005C22.5561 12.3005 24.6463 13.2135 26.1795 14.6947C28.8349 16.1572 32.7293 17.1163 36.5146 15.011C37.2918 14.1782 38.2348 13.5007 39.2918 13.0312Z" fill="#00FFF0"/>
</svg>
