<svg width="185" height="53" viewBox="0 0 185 53" fill="none" xmlns="http://www.w3.org/2000/svg">
<g filter="url(#filter0_d_1_36)">
<path d="M38.5533 34.8451C37.8792 35.1218 37.2005 35.3707 36.517 35.592C35.8336 35.8133 35.1268 36.0024 34.3965 36.1591C33.6663 36.3251 32.8939 36.4496 32.0794 36.5326C31.2743 36.6155 30.4083 36.657 29.4814 36.657C27.5154 36.657 25.7038 36.4496 24.0467 36.0346C22.399 35.6197 20.976 34.9973 19.7776 34.1674C18.5886 33.3283 17.6618 32.2864 16.9971 31.0416C16.3324 29.7875 16 28.326 16 26.657C16 24.9881 16.3324 23.5312 16.9971 22.2864C17.6618 21.0323 18.5886 19.9904 19.7776 19.1605C20.976 18.3214 22.399 17.6944 24.0467 17.2795C25.7038 16.8645 27.5154 16.657 29.4814 16.657C30.4083 16.657 31.2743 16.6985 32.0794 16.7815C32.8939 16.8645 33.6663 16.989 34.3965 17.155C35.1268 17.3117 35.8336 17.5008 36.517 17.7221C37.2005 17.9434 37.8792 18.1923 38.5533 18.4689V23.0886C38.0196 22.8027 37.4579 22.5215 36.8681 22.2449C36.2783 21.959 35.6276 21.7055 34.9161 21.4842C34.2046 21.2536 33.4229 21.0692 32.5709 20.9309C31.719 20.7834 30.7593 20.7096 29.6921 20.7096C28.0537 20.7096 26.6915 20.8756 25.6055 21.2075C24.5289 21.5395 23.6676 21.9821 23.0216 22.5353C22.3756 23.0886 21.9215 23.7248 21.6594 24.444C21.3972 25.154 21.2662 25.8917 21.2662 26.657C21.2662 27.1642 21.3223 27.6667 21.4347 28.1646C21.547 28.6534 21.7343 29.119 21.9964 29.5616C22.2586 29.995 22.6003 30.3961 23.0216 30.7649C23.4429 31.1338 23.9671 31.4519 24.5944 31.7193C25.2217 31.9867 25.9519 32.1988 26.7851 32.3555C27.6277 32.5031 28.5967 32.5768 29.6921 32.5768C30.7593 32.5768 31.719 32.5123 32.5709 32.3832C33.4229 32.2449 34.2046 32.0651 34.9161 31.8438C35.6276 31.6225 36.2783 31.3735 36.8681 31.0969C37.4579 30.811 38.0196 30.5206 38.5533 30.2255V34.8451Z" fill="white"/>
<path d="M59.0563 32.5492H48.2992L46.4877 36.1453H40.6738L50.7708 17.1411H56.5847L66.6817 36.1453H60.8678L59.0563 32.5492ZM50.167 28.8424H57.2166L53.7058 21.8438L50.167 28.8424Z" fill="white"/>
<path d="M79.5312 21.2767V36.1453H74.3212V21.2767H66.134V17.1411H87.7324V21.2767H79.5312Z" fill="white"/>
<path d="M91.187 36.1453V17.1411H110.721V21.1937H96.5374V24.3334H109.991V28.386H96.5374V32.0927H110.918V36.1453H91.187Z" fill="white"/>
<path d="M134.187 36.1453L121.169 23.0886V36.1453H115.959V17.1411H121.618L134.65 30.2532V17.1411H139.832V36.1453H134.187Z" fill="white"/>
<path d="M161.375 32.5492H150.618L148.806 36.1453H142.992L153.089 17.1411H158.903L169 36.1453H163.186L161.375 32.5492ZM152.485 28.8424H159.535L156.024 21.8438L152.485 28.8424Z" fill="white"/>
</g>
<defs>
<filter id="filter0_d_1_36" x="0" y="0.657043" width="185" height="52" filterUnits="userSpaceOnUse" color-interpolation-filters="sRGB">
<feFlood flood-opacity="0" result="BackgroundImageFix"/>
<feColorMatrix in="SourceAlpha" type="matrix" values="0 0 0 0 0 0 0 0 0 0 0 0 0 0 0 0 0 0 127 0" result="hardAlpha"/>
<feOffset/>
<feGaussianBlur stdDeviation="8"/>
<feComposite in2="hardAlpha" operator="out"/>
<feColorMatrix type="matrix" values="0 0 0 0 1 0 0 0 0 1 0 0 0 0 1 0 0 0 0.2 0"/>
<feBlend mode="normal" in2="BackgroundImageFix" result="effect1_dropShadow_1_36"/>
<feBlend mode="normal" in="SourceGraphic" in2="effect1_dropShadow_1_36" result="shape"/>
</filter>
</defs>
</svg>
