<svg width="20" height="20" viewBox="0 0 20 20" fill="none" xmlns="http://www.w3.org/2000/svg">
<path fill-rule="evenodd" clip-rule="evenodd" d="M7.62084 2.79385C7.91402 3.08645 7.9145 3.56132 7.6219 3.85451L4.72415 6.75804L17.0827 6.75804C17.4969 6.75804 17.8327 7.09383 17.8327 7.50804C17.8327 7.92225 17.4969 8.25804 17.0827 8.25804L2.91604 8.25804C2.61283 8.25804 2.33944 8.07547 2.22327 7.7954C2.1071 7.51533 2.17099 7.19286 2.38518 6.97824L6.56018 2.79491C6.85278 2.50172 7.32765 2.50125 7.62084 2.79385ZM2.16604 12.4914C2.16604 12.0772 2.50182 11.7414 2.91604 11.7414H17.0832C17.3864 11.7414 17.6598 11.9239 17.776 12.204C17.8922 12.4841 17.8283 12.8066 17.6141 13.0212L13.4391 17.2045C13.1465 17.4977 12.6716 17.4982 12.3784 17.2056C12.0852 16.913 12.0848 16.4381 12.3774 16.1449L15.2751 13.2414H2.91604C2.50182 13.2414 2.16604 12.9056 2.16604 12.4914Z" fill="url(#paint0_linear_100_1412)"/>
<defs>
<linearGradient id="paint0_linear_100_1412" x1="-2" y1="9.99969" x2="91" y2="9.99969" gradientUnits="userSpaceOnUse">
<stop stop-color="#4B5DFF"/>
<stop offset="1" stop-color="#FF6C87"/>
</linearGradient>
</defs>
</svg>
