<svg width="76" height="11" viewBox="0 0 76 11" fill="none" xmlns="http://www.w3.org/2000/svg">
<path d="M4.3335 10.2285C6.44727 10.2285 7.96436 9.00342 8.20557 7.16895V7.12451H6.59961L6.59326 7.15625C6.3584 8.16553 5.49512 8.81299 4.3335 8.81299C2.77197 8.81299 1.80078 7.51172 1.80078 5.42334V5.41064C1.80078 3.32861 2.77197 2.02734 4.32715 2.02734C5.48242 2.02734 6.3584 2.74463 6.59326 3.83008L6.59961 3.85547H8.20557V3.80469C7.98975 1.93213 6.40918 0.611816 4.32715 0.611816C1.73096 0.611816 0.125 2.44629 0.125 5.41699V5.42969C0.125 8.3877 1.7373 10.2285 4.3335 10.2285ZM13.9819 10.2285C16.6543 10.2285 18.311 8.36865 18.311 5.42334V5.41064C18.311 2.45898 16.6479 0.611816 13.9819 0.611816C11.3223 0.611816 9.64648 2.45898 9.64648 5.41064V5.42334C9.64648 8.36865 11.2969 10.2285 13.9819 10.2285ZM13.9819 8.81299C12.3315 8.81299 11.3159 7.47998 11.3159 5.42334V5.41064C11.3159 3.34131 12.3569 2.02734 13.9819 2.02734C15.6069 2.02734 16.6416 3.34131 16.6416 5.41064V5.42334C16.6416 7.47998 15.6133 8.81299 13.9819 8.81299ZM20.1899 10H21.8276V6.55322H23.6431L25.4395 10H27.312L25.3125 6.30566C26.3979 5.91211 27.0391 4.90918 27.0391 3.69678V3.68408C27.0391 1.93848 25.8584 0.840332 23.8906 0.840332H20.1899V10ZM21.8276 5.29639V2.16699H23.6875C24.7285 2.16699 25.3569 2.76367 25.3569 3.72217V3.73486C25.3569 4.71875 24.7539 5.29639 23.7192 5.29639H21.8276ZM29.0259 10H34.9546V8.62256H30.6636V6.00098H34.7197V4.69971H30.6636V2.21777H34.9546V0.840332H29.0259V10Z" fill="#FF7152"/>
<path d="M38.8711 10H40.4136L42.2671 3.44287H42.3623L44.2285 10H45.7646L48.2212 0.840332H46.5264L44.9585 7.71484H44.8696L43.0415 0.840332H41.5879L39.7852 7.71484H39.6899L38.1221 0.840332H36.4146L38.8711 10ZM50.8999 10.1143C51.814 10.1143 52.5503 9.7207 52.9312 9.04785H53.0391V10H54.6006V5.2583C54.6006 3.79199 53.5977 2.92871 51.814 2.92871C50.1636 2.92871 49.0464 3.70312 48.894 4.87109L48.8877 4.92822H50.3794L50.3857 4.90283C50.5444 4.4458 51.0142 4.18555 51.7378 4.18555C52.5884 4.18555 53.0391 4.56641 53.0391 5.2583V5.85498L51.2554 5.96289C49.5669 6.06445 48.6211 6.78809 48.6211 8.02588V8.03857C48.6211 9.30176 49.5796 10.1143 50.8999 10.1143ZM50.1826 7.9624V7.94971C50.1826 7.37842 50.5952 7.05469 51.4775 6.99756L53.0391 6.896V7.45459C53.0391 8.27979 52.3345 8.90186 51.3823 8.90186C50.6841 8.90186 50.1826 8.55273 50.1826 7.9624ZM56.562 10H58.1426V0.376953H56.562V10ZM60.2056 10H61.7861V0.376953H60.2056V10ZM66.7563 10.1396C68.6416 10.1396 69.5684 9.0542 69.7905 8.15918L69.8096 8.10205H68.3052L68.2861 8.14648C68.1338 8.46387 67.645 8.89551 66.7881 8.89551C65.7153 8.89551 65.0425 8.17188 65.0234 6.92773H69.873V6.40723C69.873 4.3125 68.6543 2.92871 66.6802 2.92871C64.7061 2.92871 63.4429 4.35693 63.4429 6.54053V6.54688C63.4429 8.75586 64.6934 10.1396 66.7563 10.1396ZM66.6992 4.1665C67.5815 4.1665 68.2227 4.73145 68.3306 5.86768H65.0361C65.1567 4.76318 65.8169 4.1665 66.6992 4.1665ZM74.1831 10.0317C74.4878 10.0317 74.7798 10.0063 75.0083 9.96191V8.74316C74.8179 8.76221 74.6973 8.76855 74.4751 8.76855C73.8149 8.76855 73.542 8.47656 73.542 7.78467V4.28711H75.0083V3.06201H73.542V1.36084H71.936V3.06201H70.8569V4.28711H71.936V8.15918C71.936 9.49854 72.5898 10.0317 74.1831 10.0317Z" fill="white"/>
</svg>
