<svg width="30" height="32" viewBox="0 0 30 32" fill="none" xmlns="http://www.w3.org/2000/svg">
<path fill-rule="evenodd" clip-rule="evenodd" d="M4.21416 8.09158C5.55143 6.37775 7.30336 5.00859 9.31566 4.10468C11.328 3.20078 13.5389 2.78984 15.7538 2.90807C17.9687 3.0263 20.1196 3.67006 22.0172 4.78267C23.9147 5.89528 25.5006 7.44261 26.6352 9.28839L27.6152 8.76116L29.2486 7.83324C27.7833 5.44597 25.7021 3.46866 23.2093 2.09537C20.7166 0.722078 17.8979 0 15.0299 0C12.162 0 9.34334 0.722078 6.85057 2.09537C4.35781 3.46866 2.27662 5.44597 0.811252 7.83324L0 9.06695L1.29583 9.81034L6.31035 12.6943C5.49014 14.6918 5.43304 16.9071 6.14933 18.9417C6.86561 20.9764 8.30825 22.6966 10.2177 23.7931C12.1271 24.8895 14.3779 25.29 16.5651 24.9226C18.7523 24.5552 20.7323 23.444 22.1488 21.789L25.8022 23.8979C24.4646 25.6132 22.7115 26.9834 20.6977 27.8875C18.6839 28.7916 16.4713 29.2018 14.255 29.082C12.0388 28.9622 9.88704 28.3159 7.9897 27.2004C6.09237 26.0848 4.50775 24.5341 3.37568 22.6853L0.789474 24.1668C2.25484 26.554 4.33604 28.5313 6.8288 29.9046C9.32156 31.2779 12.1402 32 15.0082 32C17.8761 32 20.6948 31.2779 23.1875 29.9046C25.6803 28.5313 27.7615 26.554 29.2269 24.1668L30 22.912L28.7042 22.1686L24.588 19.8013L21.0381 17.8189C20.606 19.1511 19.7161 20.2999 18.5164 21.0745C17.3167 21.8491 15.8794 22.2028 14.4433 22.077C13.0072 21.9511 11.6589 21.3532 10.6223 20.3826C9.58571 19.4119 8.92333 18.1271 8.74521 16.7415C8.5671 15.3559 8.88398 13.953 9.64319 12.7659C10.4024 11.5788 11.5582 10.6791 12.9186 10.2161C14.279 9.75317 15.762 9.75493 17.1212 10.2211C18.4804 10.6873 19.634 11.5898 20.3902 12.7786L22.9982 11.3235C22.232 10.093 21.1736 9.05739 19.9108 8.3028C18.6481 7.54821 17.2176 7.09644 15.7382 6.98506C14.2588 6.87367 12.7734 7.10589 11.4054 7.66241C10.0374 8.21892 8.82633 9.08364 7.87296 10.1847L4.21416 8.09158Z" fill="#FF7152"/>
</svg>
