<svg width="20" height="20" viewBox="0 0 20 20" fill="none" xmlns="http://www.w3.org/2000/svg">
<path fill-rule="evenodd" clip-rule="evenodd" d="M4.58337 9.91663C4.92855 9.91663 5.20837 10.1964 5.20837 10.5416C5.20837 12.677 7.22057 14.375 10 14.375C12.7795 14.375 14.7917 12.677 14.7917 10.5416C14.7917 10.1964 15.0715 9.91663 15.4167 9.91663C15.7619 9.91663 16.0417 10.1964 16.0417 10.5416V13.625C16.0417 16.6495 13.2518 18.9583 10 18.9583C6.74827 18.9583 3.95837 16.6495 3.95837 13.625V10.5416C3.95837 10.1964 4.2382 9.91663 4.58337 9.91663ZM5.20933 13.7061C5.25979 15.8477 7.30249 17.7083 10 17.7083C12.6976 17.7083 14.7403 15.8477 14.7908 13.7061C13.6634 14.9182 11.8958 15.625 10 15.625C8.10428 15.625 6.33669 14.9182 5.20933 13.7061Z" fill="white"/>
<path fill-rule="evenodd" clip-rule="evenodd" d="M10 2.29163C8.64575 2.29163 7.44316 2.76538 6.57771 3.52081L6.57742 3.52107C5.71987 4.26867 5.20837 5.27899 5.20837 6.37496C5.20837 7.0162 5.38388 7.60372 5.69168 8.10739L5.69243 8.10861C6.44739 9.35043 8.05262 10.2083 10 10.2083C11.9475 10.2083 13.5527 9.35044 14.3077 8.10862L14.3084 8.10739C14.6162 7.60372 14.7917 7.0162 14.7917 6.37496C14.7917 5.28025 14.2813 4.26953 13.4225 3.5126C12.5562 2.76474 11.3533 2.29163 10 2.29163ZM5.756 2.57885C6.85718 1.61778 8.35448 1.04163 10 1.04163C11.6456 1.04163 13.1418 1.61772 14.2421 2.56879L14.2464 2.57249L14.2464 2.57251C15.3363 3.53204 16.0417 4.87056 16.0417 6.37496C16.0417 7.25013 15.8007 8.06239 15.3754 8.75859C14.3469 10.4497 12.2857 11.4583 10 11.4583C7.71445 11.4583 5.65326 10.4498 4.62475 8.75868C4.19942 8.06247 3.95837 7.25017 3.95837 6.37496C3.95837 4.87106 4.66342 3.53149 5.75571 2.57911" fill="white"/>
<path fill-rule="evenodd" clip-rule="evenodd" d="M10 2.29163C7.26847 2.29163 5.20837 4.19947 5.20837 6.37496V10.5416C5.20837 12.677 7.22057 14.375 10 14.375C12.7795 14.375 14.7917 12.677 14.7917 10.5416V6.37496C14.7917 5.28025 14.2813 4.26953 13.4225 3.5126C12.5562 2.76474 11.3533 2.29163 10 2.29163ZM3.95837 6.37496C3.95837 3.35044 6.74827 1.04163 10 1.04163C11.6456 1.04163 13.1418 1.61772 14.2421 2.56879L14.2464 2.57249L14.2464 2.57251C15.3363 3.53204 16.0417 4.87056 16.0417 6.37496V10.5416C16.0417 13.6062 13.2039 15.625 10 15.625C6.79618 15.625 3.95837 13.6062 3.95837 10.5416V6.37496Z" fill="white"/>
</svg>
