<svg width="20" height="20" viewBox="0 0 20 20" fill="none" xmlns="http://www.w3.org/2000/svg">
<path fill-rule="evenodd" clip-rule="evenodd" d="M7.7019 7.7019C8.3114 7.09241 9.13805 6.75 10 6.75C10.862 6.75 11.6886 7.09241 12.2981 7.7019C12.9076 8.3114 13.25 9.13805 13.25 10C13.25 10.862 12.9076 11.6886 12.2981 12.2981C11.6886 12.9076 10.862 13.25 10 13.25C9.13805 13.25 8.3114 12.9076 7.7019 12.2981C7.09241 11.6886 6.75 10.862 6.75 10C6.75 9.13805 7.09241 8.3114 7.7019 7.7019ZM10 8.25C9.53587 8.25 9.09075 8.43437 8.76256 8.76256C8.43437 9.09075 8.25 9.53587 8.25 10C8.25 10.4641 8.43437 10.9092 8.76256 11.2374C9.09075 11.5656 9.53587 11.75 10 11.75C10.4641 11.75 10.9092 11.5656 11.2374 11.2374C11.5656 10.9092 11.75 10.4641 11.75 10C11.75 9.53587 11.5656 9.09075 11.2374 8.76256C10.9092 8.43437 10.4641 8.25 10 8.25Z" fill="url(#paint0_linear_100_2273)"/>
<path fill-rule="evenodd" clip-rule="evenodd" d="M7.89519 3.20555C7.70592 2.89118 7.31213 2.79901 7.02509 2.96978L7.01419 2.97627L5.57247 3.80118C5.17691 4.02721 5.03969 4.54106 5.26577 4.93291C5.72479 5.7251 5.86141 6.61793 5.43312 7.36116C5.0048 8.10441 4.16392 8.43356 3.24996 8.43356C2.79174 8.43356 2.41663 8.81187 2.41663 9.26689V10.7336C2.41663 11.1886 2.79174 11.5669 3.24996 11.5669C4.16392 11.5669 5.0048 11.896 5.43312 12.6393C5.86116 13.3821 5.72495 14.2743 5.2666 15.0661C5.15755 15.2571 5.12853 15.4836 5.18594 15.696C5.24341 15.9087 5.3828 16.0898 5.57358 16.1999C5.57338 16.1998 5.57379 16.2 5.57358 16.1999L7.02515 17.0306C7.31219 17.2013 7.70593 17.1093 7.8952 16.7949L7.98422 16.6411C8.44326 15.8491 9.14991 15.2856 10.0073 15.2856C10.8652 15.2856 11.5698 15.8495 12.0248 16.6424C12.0251 16.6429 12.0254 16.6434 12.0256 16.6439L12.113 16.7948C12.3023 17.1093 12.6961 17.2014 12.9832 17.0307L12.9941 17.0242L14.4358 16.1993C14.8301 15.9739 14.9701 15.4678 14.7413 15.0655C14.2832 14.2738 14.1472 13.3819 14.5751 12.6393C15.0035 11.896 15.8443 11.5669 16.7583 11.5669C17.2165 11.5669 17.5916 11.1886 17.5916 10.7336V9.26689C17.5916 8.80867 17.2133 8.43356 16.7583 8.43356C15.8443 8.43356 15.0035 8.10441 14.5751 7.36116C14.1469 6.61796 14.2834 5.72517 14.7424 4.93301C14.9686 4.54115 14.8318 4.02746 14.4362 3.80141L12.9831 2.96987C12.6961 2.79911 12.3023 2.89118 12.1131 3.20555L12.024 3.35934C11.565 4.15131 10.8583 4.71481 10.001 4.71481C9.14305 4.71481 8.43853 4.15099 7.9835 3.35809C7.98321 3.35758 7.98291 3.35707 7.98262 3.35655L7.89519 3.20555ZM6.26419 1.67709C7.29193 1.07013 8.59254 1.44394 9.18618 2.44176L9.19074 2.44942L9.28397 2.61056C9.57898 3.12518 9.86575 3.21481 10.001 3.21481C10.1374 3.21481 10.4267 3.12385 10.7259 2.60778C10.7258 2.60789 10.726 2.60767 10.7259 2.60778L10.822 2.44173C11.4157 1.4439 12.7163 1.07013 13.7441 1.6771L15.1804 2.49904C16.301 3.13971 16.6812 4.57581 16.041 5.68377L16.0405 5.68466C15.7414 6.2007 15.8073 6.49516 15.8748 6.61221C15.9423 6.72937 16.1639 6.93356 16.7583 6.93356C18.0366 6.93356 19.0916 7.97511 19.0916 9.26689V10.7336C19.0916 12.0119 18.0501 13.0669 16.7583 13.0669C16.1639 13.0669 15.9423 13.2711 15.8748 13.3882C15.8073 13.5053 15.7414 13.7998 16.0405 14.3158L16.0428 14.3198C16.6794 15.4337 16.3023 16.86 15.1808 17.5012L13.744 18.3234C12.7163 18.9303 11.4157 18.5565 10.8221 17.5587L10.8175 17.551L10.7259 17.3927L10.7243 17.3899C10.4293 16.8753 10.1425 16.7856 10.0073 16.7856C9.87087 16.7856 9.58159 16.8766 9.28236 17.3927C9.2823 17.3928 9.28243 17.3926 9.28236 17.3927L9.18623 17.5587C8.5926 18.5565 7.292 18.9303 6.26428 18.3234L4.82745 17.5012L4.82572 17.5002C4.29031 17.1919 3.89908 16.6838 3.73789 16.0874C3.5767 15.491 3.65871 14.855 3.96593 14.3189L3.96774 14.3158C4.26684 13.7997 4.20092 13.5053 4.13347 13.3882C4.06595 13.2711 3.84434 13.0669 3.24996 13.0669C1.95818 13.0669 0.916626 12.0119 0.916626 10.7336V9.26689C0.916626 7.98858 1.95818 6.93356 3.24996 6.93356C3.84434 6.93356 4.06595 6.72937 4.13347 6.61221C4.20092 6.49516 4.26685 6.2007 3.96774 5.68466L3.96723 5.68377C3.32707 4.57581 3.7068 3.13994 4.82745 2.49927L6.26419 1.67709Z" fill="url(#paint1_linear_100_2273)"/>
<defs>
<linearGradient id="paint0_linear_100_2273" x1="5.70692" y1="10" x2="35.3905" y2="10" gradientUnits="userSpaceOnUse">
<stop stop-color="#4B5DFF"/>
<stop offset="1" stop-color="#FF6C87"/>
</linearGradient>
<linearGradient id="paint1_linear_100_2273" x1="-2" y1="10.0002" x2="81" y2="10.0002" gradientUnits="userSpaceOnUse">
<stop stop-color="#4B5DFF"/>
<stop offset="1" stop-color="#FF6C87"/>
</linearGradient>
</defs>
</svg>
