<svg width="20" height="20" viewBox="0 0 20 20" fill="none" xmlns="http://www.w3.org/2000/svg">
<path fill-rule="evenodd" clip-rule="evenodd" d="M4.58337 9.9165C4.92855 9.9165 5.20837 10.1963 5.20837 10.5415C5.20837 12.6769 7.22057 14.3748 10 14.3748C12.7795 14.3748 14.7917 12.6769 14.7917 10.5415C14.7917 10.1963 15.0715 9.9165 15.4167 9.9165C15.7619 9.9165 16.0417 10.1963 16.0417 10.5415V13.6248C16.0417 16.6494 13.2518 18.9582 10 18.9582C6.74827 18.9582 3.95837 16.6494 3.95837 13.6248V10.5415C3.95837 10.1963 4.2382 9.9165 4.58337 9.9165ZM5.20933 13.706C5.25979 15.8475 7.30249 17.7082 10 17.7082C12.6976 17.7082 14.7403 15.8475 14.7908 13.706C13.6634 14.918 11.8958 15.6248 10 15.6248C8.10428 15.6248 6.33669 14.918 5.20933 13.706Z" fill="url(#paint0_linear_100_1793)"/>
<path fill-rule="evenodd" clip-rule="evenodd" d="M10 2.2915C8.64575 2.2915 7.44316 2.76525 6.57771 3.52069L6.57742 3.52095C5.71987 4.26855 5.20837 5.27887 5.20837 6.37484C5.20837 7.01608 5.38388 7.60359 5.69168 8.10726L5.69243 8.10849C6.44739 9.35031 8.05262 10.2082 10 10.2082C11.9475 10.2082 13.5527 9.35031 14.3077 8.10849L14.3084 8.10726C14.6162 7.60359 14.7917 7.01607 14.7917 6.37484C14.7917 5.28013 14.2813 4.26941 13.4225 3.51248C12.5562 2.76462 11.3533 2.2915 10 2.2915ZM5.756 2.57873C6.85718 1.61765 8.35448 1.0415 10 1.0415C11.6456 1.0415 13.1418 1.6176 14.2421 2.56867L14.2464 2.57237L14.2464 2.57239C15.3363 3.53192 16.0417 4.87044 16.0417 6.37484C16.0417 7.25001 15.8007 8.06227 15.3754 8.75846C14.3469 10.4496 12.2857 11.4582 10 11.4582C7.71445 11.4582 5.65326 10.4496 4.62475 8.75856C4.19942 8.06234 3.95837 7.25005 3.95837 6.37484C3.95837 4.87094 4.66342 3.53136 5.75571 2.57898" fill="url(#paint1_linear_100_1793)"/>
<path fill-rule="evenodd" clip-rule="evenodd" d="M10 2.2915C7.26847 2.2915 5.20837 4.19935 5.20837 6.37484V10.5415C5.20837 12.6769 7.22057 14.3748 10 14.3748C12.7795 14.3748 14.7917 12.6769 14.7917 10.5415V6.37484C14.7917 5.28013 14.2813 4.26941 13.4225 3.51248C12.5562 2.76462 11.3533 2.2915 10 2.2915ZM3.95837 6.37484C3.95837 3.35032 6.74827 1.0415 10 1.0415C11.6456 1.0415 13.1418 1.6176 14.2421 2.56867L14.2464 2.57237L14.2464 2.57239C15.3363 3.53192 16.0417 4.87044 16.0417 6.37484V10.5415C16.0417 13.6061 13.2039 15.6248 10 15.6248C6.79618 15.6248 3.95837 13.6061 3.95837 10.5415V6.37484Z" fill="url(#paint2_linear_100_1793)"/>
<defs>
<linearGradient id="paint0_linear_100_1793" x1="-0.891978" y1="14.4373" x2="76.5" y2="14.4373" gradientUnits="userSpaceOnUse">
<stop stop-color="#4B5DFF"/>
<stop offset="1" stop-color="#FF6C87"/>
</linearGradient>
<linearGradient id="paint1_linear_100_1793" x1="-0.891978" y1="6.24983" x2="76.5" y2="6.24983" gradientUnits="userSpaceOnUse">
<stop stop-color="#4B5DFF"/>
<stop offset="1" stop-color="#FF6C87"/>
</linearGradient>
<linearGradient id="paint2_linear_100_1793" x1="-0.891978" y1="8.33317" x2="76.5" y2="8.33317" gradientUnits="userSpaceOnUse">
<stop stop-color="#4B5DFF"/>
<stop offset="1" stop-color="#FF6C87"/>
</linearGradient>
</defs>
</svg>
