<svg width="20" height="20" viewBox="0 0 20 20" fill="none" xmlns="http://www.w3.org/2000/svg">
<g clip-path="url(#clip0_100_2494)">
<path fill-rule="evenodd" clip-rule="evenodd" d="M14.2803 7.38642C14.5732 7.67931 14.5732 8.15418 14.2803 8.44708L10.7803 11.9471C10.6214 12.106 10.3997 12.1852 10.1761 12.1631C9.9525 12.141 9.7506 12.0197 9.62596 11.8328L8.8001 10.594L6.78033 12.6137C6.48744 12.9066 6.01256 12.9066 5.71967 12.6137C5.42678 12.3209 5.42678 11.846 5.71967 11.5531L8.38634 8.88642C8.54522 8.72753 8.76697 8.64826 8.99057 8.6704C9.21417 8.69254 9.41607 8.81377 9.5407 9.00072L10.3666 10.2395L13.2197 7.38642C13.5126 7.09352 13.9874 7.09352 14.2803 7.38642Z" fill="url(#paint0_linear_100_2494)"/>
<path fill-rule="evenodd" clip-rule="evenodd" d="M11.3333 7.91675C11.3333 7.50253 11.669 7.16675 12.0833 7.16675H13.7499C14.1641 7.16675 14.4999 7.50253 14.4999 7.91675V9.58341C14.4999 9.99763 14.1641 10.3334 13.7499 10.3334C13.3357 10.3334 12.9999 9.99763 12.9999 9.58341V8.66675H12.0833C11.669 8.66675 11.3333 8.33096 11.3333 7.91675Z" fill="url(#paint1_linear_100_2494)"/>
<path fill-rule="evenodd" clip-rule="evenodd" d="M2.49046 2.49058C3.63743 1.34362 5.34265 0.916748 7.49996 0.916748H12.5C14.6573 0.916748 16.3625 1.34362 17.5095 2.49058C18.6564 3.63755 19.0833 5.34278 19.0833 7.50008V12.5001C19.0833 14.6574 18.6564 16.3626 17.5095 17.5096C16.3625 18.6565 14.6573 19.0834 12.5 19.0834H7.49996C5.34265 19.0834 3.63743 18.6565 2.49046 17.5096C1.34349 16.3626 0.916626 14.6574 0.916626 12.5001V7.50008C0.916626 5.34278 1.34349 3.63755 2.49046 2.49058ZM3.55112 3.55124C2.82309 4.27928 2.41663 5.49072 2.41663 7.50008V12.5001C2.41663 14.5094 2.82309 15.7209 3.55112 16.4489C4.27915 17.1769 5.4906 17.5834 7.49996 17.5834H12.5C14.5093 17.5834 15.7208 17.1769 16.4488 16.4489C17.1768 15.7209 17.5833 14.5094 17.5833 12.5001V7.50008C17.5833 5.49072 17.1768 4.27928 16.4488 3.55124C15.7208 2.82321 14.5093 2.41675 12.5 2.41675H7.49996C5.4906 2.41675 4.27915 2.82321 3.55112 3.55124Z" fill="url(#paint2_linear_100_2494)"/>
</g>
<defs>
<linearGradient id="paint0_linear_100_2494" x1="3.80736" y1="10.0001" x2="41.211" y2="10.0001" gradientUnits="userSpaceOnUse">
<stop stop-color="#4B5DFF"/>
<stop offset="1" stop-color="#FF6C87"/>
</linearGradient>
<linearGradient id="paint1_linear_100_2494" x1="10.7377" y1="8.75008" x2="23.8982" y2="8.75008" gradientUnits="userSpaceOnUse">
<stop stop-color="#4B5DFF"/>
<stop offset="1" stop-color="#FF6C87"/>
</linearGradient>
<linearGradient id="paint2_linear_100_2494" x1="-2.5" y1="10.0001" x2="73" y2="10.0001" gradientUnits="userSpaceOnUse">
<stop stop-color="#4B5DFF"/>
<stop offset="1" stop-color="#FF6C87"/>
</linearGradient>
<clipPath id="clip0_100_2494">
<rect width="20" height="20" fill="white"/>
</clipPath>
</defs>
</svg>
