<svg width="20" height="20" viewBox="0 0 20 20" fill="none" xmlns="http://www.w3.org/2000/svg">
<path fill-rule="evenodd" clip-rule="evenodd" d="M5.0835 7.5C5.0835 7.08579 5.41928 6.75 5.8335 6.75H10.8335C11.2477 6.75 11.5835 7.08579 11.5835 7.5C11.5835 7.91421 11.2477 8.25 10.8335 8.25H5.8335C5.41928 8.25 5.0835 7.91421 5.0835 7.5Z" fill="white"/>
<path fill-rule="evenodd" clip-rule="evenodd" d="M15.7667 9.0415C15.501 9.0415 15.2702 9.14406 15.1041 9.31472L15.0906 9.32818C14.8946 9.51958 14.7859 9.79103 14.8133 10.0787L14.8142 10.0875C14.8142 10.0875 14.8142 10.0876 14.8142 10.0876C14.8141 10.0876 14.8141 10.0876 14.8141 10.0876C14.8521 10.5426 15.2976 10.9582 15.8667 10.9582H17.4811C17.5495 10.9522 17.5834 10.9007 17.5834 10.8582V9.1415C17.5834 9.09899 17.5495 9.0475 17.4811 9.0415H15.7667ZM14.036 8.26148C14.486 7.80302 15.1024 7.5415 15.7667 7.5415H17.5001C17.509 7.5415 17.5179 7.54166 17.5268 7.54198C18.3865 7.57269 19.0834 8.26894 19.0834 9.1415V10.8582C19.0834 11.7307 18.3865 12.427 17.5268 12.4577C17.5179 12.458 17.509 12.4582 17.5001 12.4582H15.8667C14.6372 12.4582 13.434 11.5591 13.3197 10.2165C13.2489 9.45934 13.5372 8.75222 14.036 8.26148Z" fill="white"/>
<path fill-rule="evenodd" clip-rule="evenodd" d="M5.83341 3.6665C5.63583 3.6665 5.44906 3.68061 5.27246 3.70778L5.2518 3.71067C4.35698 3.82296 3.66108 4.20455 3.1865 4.76135C2.71038 5.31995 2.41675 6.1027 2.41675 7.08317V12.9165C2.41675 13.9961 2.77333 14.8374 3.34291 15.407C3.91249 15.9766 4.75385 16.3332 5.83341 16.3332H13.3334C14.413 16.3332 15.2543 15.9766 15.8239 15.407C16.3935 14.8374 16.7501 13.9961 16.7501 12.9165C16.7501 12.6634 16.5449 12.4582 16.2917 12.4582H15.8667C14.6372 12.4582 13.4341 11.5591 13.3197 10.2165C13.249 9.45933 13.5373 8.75221 14.0361 8.26147C14.486 7.80302 15.1024 7.5415 15.7667 7.5415H16.2917C16.5449 7.5415 16.7501 7.3363 16.7501 7.08317C16.7501 6.0962 16.4513 5.30862 15.9677 4.74817C15.4854 4.18932 14.7785 3.80859 13.8718 3.70315C13.8595 3.70172 13.8473 3.7 13.8351 3.69797C13.6952 3.67465 13.5346 3.6665 13.3334 3.6665H5.83341ZM5.05475 2.22364C5.3082 2.18521 5.56796 2.1665 5.83341 2.1665H13.3334C13.5599 2.1665 13.8092 2.17462 14.0628 2.21529C15.2984 2.36291 16.3558 2.90201 17.1033 3.76817C17.853 4.63689 18.2501 5.7868 18.2501 7.08317V8.2915C18.2501 8.70572 17.9143 9.0415 17.5001 9.0415H15.7667C15.501 9.0415 15.2703 9.14406 15.1041 9.31472L15.0906 9.32819C14.8946 9.51958 14.786 9.79103 14.8134 10.0787L14.8142 10.0875C14.8142 10.0875 14.8142 10.0876 14.8142 10.0876C14.8142 10.0876 14.8142 10.0876 14.8142 10.0876C14.8521 10.5426 15.2977 10.9582 15.8667 10.9582H17.5001C17.9143 10.9582 18.2501 11.294 18.2501 11.7082V12.9165C18.2501 14.3369 17.7733 15.5789 16.8846 16.4677C15.9958 17.3564 14.7538 17.8332 13.3334 17.8332H5.83341C4.41298 17.8332 3.171 17.3564 2.28225 16.4677C1.3935 15.5789 0.916748 14.3369 0.916748 12.9165V7.08317C0.916748 5.79697 1.30644 4.65473 2.04491 3.78833C2.78285 2.92254 3.82901 2.37975 5.05475 2.22364Z" fill="white"/>
</svg>
