<svg width="20" height="20" viewBox="0 0 20 20" fill="none" xmlns="http://www.w3.org/2000/svg">
<path fill-rule="evenodd" clip-rule="evenodd" d="M5.08325 7.5C5.08325 7.08579 5.41904 6.75 5.83325 6.75H10.8333C11.2475 6.75 11.5833 7.08579 11.5833 7.5C11.5833 7.91421 11.2475 8.25 10.8333 8.25H5.83325C5.41904 8.25 5.08325 7.91421 5.08325 7.5Z" fill="url(#paint0_linear_31_857)"/>
<path fill-rule="evenodd" clip-rule="evenodd" d="M15.7666 9.04169C15.5009 9.04169 15.2701 9.14424 15.104 9.3149L15.0905 9.32837C14.8944 9.51976 14.7858 9.79121 14.8132 10.0789L14.8141 10.0877C14.8141 10.0877 14.814 10.0877 14.814 10.0877V10.0877C14.814 10.0877 14.814 10.0877 14.814 10.0878C14.8519 10.5427 15.2975 10.9584 15.8666 10.9584H17.4809C17.5494 10.9524 17.5833 10.9009 17.5833 10.8584V9.14169C17.5833 9.09917 17.5494 9.04768 17.4809 9.04169H15.7666ZM14.0359 8.26166C14.4858 7.80321 15.1023 7.54169 15.7666 7.54169H17.4999C17.5089 7.54169 17.5178 7.54185 17.5267 7.54216C18.3864 7.57287 19.0833 8.26912 19.0833 9.14169V10.8584C19.0833 11.7309 18.3864 12.4272 17.5267 12.4579C17.5178 12.4582 17.5089 12.4584 17.4999 12.4584H15.8666C14.637 12.4584 13.4339 11.5593 13.3196 10.2167C13.2488 9.45952 13.5371 8.75241 14.0359 8.26166Z" fill="url(#paint1_linear_31_857)"/>
<path fill-rule="evenodd" clip-rule="evenodd" d="M5.83329 3.66669C5.63571 3.66669 5.44894 3.6808 5.27234 3.70797L5.25168 3.71085C4.35685 3.82314 3.66096 4.20473 3.18638 4.76153C2.71026 5.32013 2.41663 6.10289 2.41663 7.08335V12.9167C2.41663 13.9963 2.77321 14.8376 3.34279 15.4072C3.91237 15.9768 4.75373 16.3334 5.83329 16.3334H13.3333C14.4129 16.3334 15.2542 15.9768 15.8238 15.4072C16.3934 14.8376 16.75 13.9963 16.75 12.9167V12.9167C16.75 12.6636 16.5448 12.4584 16.2916 12.4584H15.8666C14.6371 12.4584 13.4339 11.5593 13.3196 10.2167C13.2488 9.45951 13.5371 8.7524 14.0359 8.26165C14.4859 7.8032 15.1023 7.54169 15.7666 7.54169H16.2916C16.5448 7.54169 16.75 7.33648 16.75 7.08335V7.08335C16.75 6.09639 16.4512 5.3088 15.9676 4.74835C15.4853 4.1895 14.7784 3.80877 13.8717 3.70333C13.8594 3.70191 13.8472 3.70018 13.835 3.69815C13.6951 3.67483 13.5345 3.66669 13.3333 3.66669H5.83329ZM5.05463 2.22382C5.30807 2.1854 5.56783 2.16669 5.83329 2.16669H13.3333C13.5598 2.16669 13.8091 2.1748 14.0627 2.21547C15.2983 2.3631 16.3557 2.90219 17.1032 3.76835C17.8529 4.63707 18.25 5.78699 18.25 7.08335V8.29169C18.25 8.7059 17.9142 9.04169 17.5 9.04169H15.7666C15.5009 9.04169 15.2701 9.14424 15.104 9.3149L15.0905 9.32837C14.8945 9.51976 14.7858 9.79121 14.8132 10.0789L14.8141 10.0877C14.8141 10.0877 14.8141 10.0877 14.8141 10.0877V10.0877C14.814 10.0877 14.814 10.0877 14.814 10.0878C14.852 10.5427 15.2975 10.9584 15.8666 10.9584H17.5C17.9142 10.9584 18.25 11.2941 18.25 11.7084V12.9167C18.25 14.3371 17.7732 15.5791 16.8845 16.4679C15.9957 17.3566 14.7537 17.8334 13.3333 17.8334H5.83329C4.41286 17.8334 3.17088 17.3566 2.28213 16.4679C1.39338 15.5791 0.916626 14.3371 0.916626 12.9167V7.08335C0.916626 5.79716 1.30632 4.65491 2.04479 3.78851C2.78273 2.92273 3.82888 2.37993 5.05463 2.22382Z" fill="url(#paint2_linear_31_857)"/>
<defs>
<linearGradient id="paint0_linear_31_857" x1="5.08325" y1="6.73404" x2="28.7278" y2="6.73404" gradientUnits="userSpaceOnUse">
<stop stop-color="#4B5DFF"/>
<stop offset="1" stop-color="#FF6C87"/>
</linearGradient>
<linearGradient id="paint1_linear_31_857" x1="13.309" y1="7.48938" x2="34.3137" y2="7.48938" gradientUnits="userSpaceOnUse">
<stop stop-color="#4B5DFF"/>
<stop offset="1" stop-color="#FF6C87"/>
</linearGradient>
<linearGradient id="paint2_linear_31_857" x1="0.916626" y1="2.00002" x2="63.9686" y2="2.00003" gradientUnits="userSpaceOnUse">
<stop stop-color="#4B5DFF"/>
<stop offset="1" stop-color="#FF6C87"/>
</linearGradient>
</defs>
</svg>
