<svg width="174" height="130" viewBox="0 0 174 130" fill="none" xmlns="http://www.w3.org/2000/svg">
<path fill-rule="evenodd" clip-rule="evenodd" d="M88.9215 16.0398C88.3977 17.4263 87.8741 18.813 87.3502 20.1995C87.0144 21.088 86.6789 21.9763 86.3432 22.8648C86.224 23.1798 86.1579 23.5029 85.9277 23.7216C85.385 24.2366 84.411 24.5643 83.7588 24.9265C83.3219 25.1692 82.8848 25.412 82.448 25.6547C82.2227 25.78 81.7231 25.9372 81.5652 26.1451C81.3915 26.3741 81.4736 26.7948 81.4736 27.1115V29.8459V34.9981C83.7305 34.716 85.9876 34.434 88.2445 34.1518C85.2375 37.6213 82.2308 41.0907 79.2239 44.5602C78.4828 45.4152 77.5831 46.2382 77.031 47.233C75.8559 49.3506 74.7072 51.4834 73.5457 53.6084C72.4644 55.5864 71.3831 57.5645 70.3018 59.5424L80.0296 59.1284C82.5482 59.0212 85.1355 59.1824 87.5621 58.4685C89.5626 57.8802 91.5629 57.2919 93.5633 56.7036C93.8294 56.6252 94.6581 56.5367 94.8467 56.3225C95.0233 56.1219 95.0195 55.3641 95.0695 55.1075C96.0137 50.2545 97.2156 44.9066 99.9714 40.7291C101.947 37.7346 104.613 35.1127 107.055 32.5014C108.008 31.4822 108.977 30.4752 109.896 29.4251C110.132 29.1561 110.472 28.8509 110.628 28.5242C110.728 28.3131 110.869 27.9109 110.806 27.7235C110.779 27.6423 110.151 27.3508 110.061 27.2929C109.424 26.8838 108.793 26.466 108.161 26.0503C106.384 24.882 104.609 23.7108 102.821 22.5581C101.428 21.6592 100.039 20.7063 98.5691 19.9339C97.0459 19.1332 95.3682 18.5697 93.7712 17.9372C92.1573 17.2978 90.5405 16.6658 88.9215 16.0398Z" fill="url(#paint0_linear_47_1727)"/>
<path fill-rule="evenodd" clip-rule="evenodd" d="M143.696 90.11C142.921 90.8402 141.51 91.8203 140.394 91.3746C139.834 91.1508 139.355 90.6594 138.845 90.3426C138.245 89.9702 137.682 89.5976 137.173 89.1013C136.159 88.1107 135.392 86.6636 134.194 85.8882C133.791 85.6275 133.005 85.5717 132.726 85.1554C132.601 84.9687 132.589 84.6855 132.612 84.4697C132.663 84.0049 132.914 84.0323 132.494 83.6911H133.146C133.158 83.4394 132.907 83.4185 132.72 83.451C132.807 83.0521 132.895 81.4909 132.168 82.1984C131.538 82.8117 131.853 83.8292 131.407 84.4934C131.065 85.0021 130.158 84.5902 130.036 84.0306C129.981 83.7793 130.258 83.3867 130.291 83.1403C130.363 82.5937 130.119 82.1211 129.765 81.7072C128.987 82.2254 129.428 83.2977 128.985 83.9785C128.584 84.5945 127.691 84.3071 127.08 84.1987C126.348 84.0687 125.521 84.2002 124.82 84.0274C123.763 83.7664 124.158 82.525 124.053 81.7236C123.941 80.8653 123.073 79.6739 123.334 78.8079C123.614 77.8781 125.251 77.6772 126.033 77.4516C127.821 76.9358 130.371 76.8366 131.701 75.3927C132.758 76.5719 133.608 77.922 134.717 79.0571C135.915 80.2831 137.194 81.4151 138.344 82.6905C139.541 84.0179 140.776 85.3198 141.93 86.6856C142.433 87.2815 142.875 87.9235 143.395 88.5051C143.858 89.0221 144.346 89.4977 143.696 90.11ZM90.551 67.1784C91.1005 66.8862 91.1704 67.0694 91.1702 67.6711C91.0121 67.3822 90.8552 67.3048 90.551 67.1784ZM85.8927 78.876V77.8153C86.4223 77.8015 86.0966 78.7088 85.8927 78.876ZM85.7632 80.4556C85.7632 79.9859 85.7505 79.5387 85.8859 79.0818C85.957 79.5797 86.0928 80.0106 85.7632 80.4556ZM88.0406 112.722C88.527 112.768 89.2767 112.433 89.6859 112.814C90.1062 113.207 90.0725 114.348 90.172 114.878C90.3365 115.754 90.4823 116.632 90.6209 117.512C90.7118 118.089 90.8242 118.675 90.172 118.896C89.2082 119.222 87.831 118.756 86.8264 118.714C84.8418 118.63 82.8582 118.514 80.8719 118.474C78.9468 118.435 77.0173 118.466 75.101 118.666C74.2353 118.757 73.3888 118.916 72.532 119.061C72.0803 119.137 70.8702 119.456 70.4623 119.076C69.6948 118.359 70.9708 116.686 71.5195 116.213C72.538 115.336 73.9865 114.704 75.2636 114.323C75.9461 114.119 77.084 113.548 77.6216 114.187C78.0341 114.677 78.0177 115.332 78.6088 115.703C79.9784 116.564 79.177 114.095 78.3212 113.791C78.8959 112.446 79.9912 114.345 80.4455 114.801C80.6072 114.963 81.1329 115.499 81.3613 115.229C81.5323 115.028 81.1908 114.306 81.1275 114.11C81.0314 113.812 80.7881 113.358 80.8581 113.035C80.9847 112.449 81.8056 112.29 82.2974 112.241C83.0599 112.165 83.8079 112.407 84.5619 112.488C85.718 112.612 86.8831 112.614 88.0406 112.722ZM80.3841 57.589C78.8788 57.7089 77.364 57.4786 75.8622 57.667C74.4413 57.8455 73.1024 58.3671 71.763 58.8463C73.7543 54.176 76.3306 49.9244 79.4707 45.9416C81.0344 43.958 82.7163 41.988 84.406 40.1106C85.1922 39.2372 86.0054 38.3927 86.8172 37.5438C87.5414 36.7865 88.0602 35.5003 88.9292 34.9348C89.671 34.452 90.9672 34.7963 91.7892 34.8263C92.7183 34.8602 93.8491 34.9446 94.7552 34.6354C95.4118 34.4113 95.5924 33.8132 94.7704 33.7934C93.801 33.7699 92.8475 33.8709 91.8654 33.78C89.3207 33.5449 86.8678 33.1585 84.3025 33.3777C83.7148 33.4278 82.9413 33.6781 82.3646 33.603C81.9498 33.5487 82.2225 33.7572 81.9343 33.4244C81.8239 33.2971 81.6909 32.9978 81.6582 32.8287C81.4745 31.879 81.9961 30.5217 82.1208 29.5655C82.2363 28.6806 82.134 27.708 82.35 26.8462C82.5467 26.062 83.1463 25.9574 83.8846 25.8736C85.9045 25.6442 87.9659 25.5222 89.9949 25.3493C94.6255 24.9549 99.4032 24.36 104.002 25.3346C105.663 25.6865 107.688 26.2307 109.171 27.1021C109.635 27.3745 110.103 27.6953 109.935 28.2596C109.76 28.8455 108.901 29.4643 108.476 29.8503C105.335 32.7021 102.301 35.611 100.094 39.2703C97.2797 43.9366 95.6647 48.9763 94.7171 54.3234C94.5133 55.4738 94.3241 56.0759 93.1405 56.407C91.87 56.7626 90.6436 56.9937 89.3262 57.1018C86.348 57.3464 83.3607 57.3515 80.3841 57.589ZM81.3928 26.6869C81.1646 28.3856 80.8557 30.0805 80.8252 31.7925C80.8137 32.4391 80.7524 32.7631 80.0648 32.9073C79.2542 33.0772 78.43 33.2038 77.6157 33.3802C73.6854 34.232 69.8294 35.2781 65.9842 36.4555C62.2472 37.6001 58.5717 38.8878 54.7507 39.7357C53.1071 40.1004 51.1839 40.3462 49.6868 41.1538C48.0764 42.0229 48.2883 43.4476 48.1438 45.0125C47.9506 47.1034 47.3306 49.1278 47.1126 51.2178C47.0083 52.2165 46.9133 53.2211 46.9291 54.2261C46.9424 55.0828 47.0652 56.03 46.4893 56.7509C45.334 55.2065 44.7864 53.264 44.5588 51.371C44.4481 50.4509 44.4919 49.5233 44.4602 48.5989C44.4347 47.8546 44.4513 46.6707 43.9665 46.0491C42.9126 44.6984 41.542 50.1116 41.4117 50.6897C41.1925 51.6627 41.0117 52.6438 40.7933 53.6169C40.6965 54.0482 40.5723 55.6161 39.9944 55.7724C38.7968 56.0964 39.0597 52.7311 39.0407 52.2187C39.0028 51.1845 38.9771 50.149 39.0013 49.114C39.0189 48.3668 39.1634 47.556 39.0776 46.8085C38.8669 44.9731 37.8348 46.9068 37.5447 47.59C36.8116 49.3147 36.48 51.1608 35.8225 52.9131C35.7132 53.2045 35.4562 54.1858 35.0491 54.2041C34.5962 54.2242 34.5997 53.2108 34.5738 52.9148C34.4235 51.1985 33.9159 49.4943 34.0691 47.7603C34.2238 46.0094 34.8375 44.2093 35.7061 42.6864C37.5423 39.4665 40.8583 37.6178 44.0345 35.9337C47.6695 34.0067 51.507 32.4843 55.4265 31.244C60.1403 29.7524 64.9804 28.5455 69.8497 27.6866C72.327 27.2497 74.8425 26.9373 77.3452 26.6867C78.2247 26.5987 79.1046 26.5473 79.9728 26.3799C80.3005 26.3166 81.4828 26.0158 81.3928 26.6869ZM83.9249 21.1898C82.683 21.1997 81.4143 20.5976 80.2043 20.3487C78.7638 20.0522 77.357 19.6231 75.9191 19.3135C73.1032 18.7073 70.2859 18.1162 67.4726 17.4967C66.2513 17.2277 65.0241 16.9936 63.8076 16.7047C62.506 16.3956 61.0999 16.051 59.7677 16.3839C57.7485 16.8887 56.8956 19.0978 56.1542 20.8219C55.6304 22.0396 55.2201 23.397 54.4034 24.4566C54.1126 24.8344 53.6992 25.285 53.1719 25.1626C52.1924 24.9355 52.3479 23.6392 52.4727 22.9227C52.6535 21.8828 52.9096 20.8552 53.1146 19.8201C53.1972 19.4023 53.8373 16.6681 52.6944 17.0915C51.8466 17.4055 51.398 19.4736 51.077 20.2123C50.8385 20.7613 50.5858 21.3066 50.3182 21.842C49.961 22.5562 48.942 24.9424 47.8138 24.6347C46.1993 24.1942 47.748 19.9498 48.0231 19.0552C48.1741 18.5641 49.8151 14.84 48.43 15.1443C47.8401 15.2742 47.2654 16.3699 46.9646 16.824C46.4312 17.6296 45.8996 18.4409 45.3975 19.2663C44.8811 20.1151 44.6173 21.0813 44.1051 21.9179C43.8356 22.3582 43.2857 22.9448 42.7488 22.5372C41.9117 21.9023 42.4078 19.6937 42.5544 18.8585C42.8271 17.3058 43.5045 15.7139 44.434 14.4446C45.8307 12.5372 48.466 11.9209 50.6821 11.5504C53.5426 11.072 56.4429 11.2029 59.3155 11.4859C62.546 11.8043 65.7273 12.1452 68.9116 12.7962C72.1208 13.4523 75.3317 14.1032 78.4915 14.9708C79.98 15.3796 81.4899 15.742 82.9573 16.2219C84.5173 16.7319 86.0398 17.3667 87.6433 17.7342C87.0793 19.1417 86.5151 20.5492 85.9511 21.9568C85.4113 21.4228 84.6744 21.1838 83.9249 21.1898ZM111.571 25.0684C112.065 24.7979 112.612 24.6702 112.792 24.0724C112.952 23.5441 112.679 22.9455 112.549 22.4384C112.184 21.0185 112.088 19.5478 112.411 18.1111C112.719 18.5819 113.874 20.3926 114.576 19.2964C114.999 18.6352 113.865 17.6841 113.533 17.2193C114.26 16.7707 115.298 15.5668 116.136 16.2928C116.677 16.7622 116.906 17.2142 117.636 17.4424C118.521 17.7195 119.355 17.656 120.259 17.5795C120.892 17.526 121.045 17.4415 121.292 17.929C121.486 18.3122 121.586 18.7865 121.7 19.198C121.923 20.0094 122.441 21.6079 121.828 22.368C121.291 23.0337 119.208 22.4629 118.919 23.3223C118.761 23.791 119.514 23.8078 119.802 24.0397C120.158 24.3268 120.453 24.7836 120.647 25.1917C120.79 25.4936 121.008 25.9922 120.764 26.3008C120.427 26.7277 119.802 26.4039 119.53 26.0936C119.169 25.6814 119.052 25.1179 118.751 24.669C118.198 23.8454 118.165 24.5006 118.015 25.092C117.858 25.7065 117.489 25.6642 116.922 25.7431C115.929 25.8817 114.925 26.0772 113.958 26.3435C113.462 26.4799 112.982 26.6537 112.51 26.8569C112.206 26.9875 111.678 27.3835 111.348 27.3872C110.737 27.3941 110.313 26.3712 109.997 25.9445C110.521 25.6518 111.044 25.3565 111.571 25.0684ZM144.414 87.7025C142.887 85.8689 141.564 83.8769 140.057 82.0273C138.57 80.2031 136.851 78.608 135.183 76.9558C134.395 76.176 133.641 75.3205 132.772 74.6295C132.124 74.1139 131.625 74.1059 130.845 74.3343C128.629 74.9833 126.373 75.7645 124.276 76.7329C122.324 77.6347 120.545 78.7927 118.428 79.2956C116.266 79.809 114.019 79.9739 111.803 79.8466C109.531 79.7161 107.388 79.2433 105.227 78.5485C103.181 77.8903 101.047 77.3157 99.2966 76.0113C97.4617 74.6439 96.044 72.6771 94.7305 70.8273C94.0654 69.8909 93.4053 68.9075 92.9572 67.8461C92.5684 66.9251 92.3143 65.8381 91.6166 65.0874C91.4454 65.3299 91.2325 65.538 91.1455 65.8228C91.1059 65.9523 91.3391 65.9483 91.3153 66.0512C91.2701 66.245 91.0121 66.4427 90.8621 66.5482C90.3233 66.9273 90.3201 66.6255 90.4615 67.3346C90.5437 67.748 90.388 68.6805 89.714 68.3758C89.9621 68.6729 89.5679 69.0478 89.4391 69.2926C89.3505 69.1908 89.2403 69.1554 89.1087 69.1861C89.3551 69.677 89.2095 69.69 88.9707 70.0798C88.927 70.1511 88.7725 70.524 88.7947 70.4925C88.5506 70.8402 88.2686 70.9277 88.1262 71.3607C88.0092 71.7163 88.0392 72.1074 87.9089 72.4625C87.7513 72.2446 87.5937 72.0268 87.4361 71.8091C87.4682 71.9804 87.5326 72.234 87.6074 72.3894C87.6544 72.4865 87.8562 72.7134 87.8535 72.7663C87.8425 72.9644 87.5954 72.9168 87.525 73.0876C87.3928 73.408 87.5839 73.4553 87.5117 73.7679C87.4291 74.1268 87.2074 73.9832 87.1019 74.2891C87.082 74.3472 87.2377 74.5757 87.213 74.7009C87.1783 74.878 87.0178 74.977 86.9611 75.1344C86.8169 75.5349 86.8694 75.8281 86.6691 76.2122C86.5916 76.3611 86.4787 76.4603 86.424 76.6296C86.3761 76.7786 86.4792 77.0956 86.3868 77.229C85.9402 77.872 86.003 76.7643 86.0369 76.4896C86.3211 74.183 87.233 71.8023 88.0675 69.6463C88.4822 68.5752 88.8859 67.4705 89.4057 66.4446C89.6149 66.0314 89.8565 65.605 90.2023 65.289C90.6397 64.8891 91.2603 64.7292 91.6563 64.2826C91.5939 64.3531 92.0858 63.8876 92.0071 64.0406C92.0775 63.9038 91.9546 63.7186 91.9983 63.5863C92.0526 63.4219 92.1554 63.3874 92.2698 63.2435C92.4754 62.9852 92.7197 62.8565 92.3967 62.5275C92.8761 62.4215 93.1053 62.266 93.2011 61.7526C93.271 61.3769 93.1298 61.4015 93.3763 61.1511C93.6236 60.8996 93.7489 61.096 93.9048 60.6604C94.0911 60.1392 94.2149 59.4305 94.3266 58.8851C94.4241 58.409 94.1875 57.7087 94.5888 57.3725C95.0971 56.9468 95.5519 57.1271 95.4609 56.2709C95.372 55.4362 95.6313 54.9306 95.892 54.1408C96.4122 52.564 96.6133 50.8993 97.0693 49.3037C98.0428 45.8987 99.7624 42.8286 101.612 39.8313C103.32 37.0617 105.709 34.7021 108.016 32.4296C108.647 31.8072 109.272 31.1758 109.839 30.4935C110.327 29.9059 110.55 29.106 111.02 28.5482C111.305 28.2095 111.836 28.0646 112.234 27.885C112.899 27.5854 113.69 27.1946 114.44 27.2552C114.142 28.2594 114.045 29.433 114.924 30.1861C115.991 31.0996 116.957 30.1505 117.935 29.6297C119.717 28.6803 122.266 29.5518 123.82 28.1288C124.19 27.7899 124.293 27.2484 124.678 26.9319C124.96 26.6998 125.362 26.6409 125.68 26.4679C126.645 25.9423 127.114 24.9802 126.738 23.9173C126.394 22.9457 125.86 22.6087 127.049 22.1163C128.014 21.7168 128.381 21.1149 127.944 20.0432C127.528 19.0215 126.765 18.9038 126.043 18.2352C125.344 17.5876 126.147 16.8338 126.671 16.3477C127.346 15.7205 127.475 15.1553 126.692 14.5031C125.872 13.8203 124.702 13.8442 123.746 14.1819C122.665 14.5636 121.953 15.1982 121.495 16.2265C121.03 17.2734 119.875 16.9813 118.94 16.6894C118.046 16.4105 117.813 15.8086 117.226 15.1604C116.573 14.4395 115.242 15.056 114.472 15.3854C112.574 16.1962 110.689 17.4759 110.614 19.7426C110.569 21.0942 111.14 22.2431 111.438 23.5117C111.71 24.6719 109.846 24.5805 109.523 25.7028C106.08 23.8801 102.245 23.3223 98.3964 23.1982C94.3056 23.0662 90.1559 22.9604 86.1 23.6057C87.0415 21.9654 87.5387 20.1668 88.3578 18.4817C88.5936 17.9966 88.6951 18.038 89.2155 18.1846C90.215 18.4661 91.2071 18.7811 92.2046 19.0711C95.8487 20.1304 99.4211 21.4067 102.945 22.8045C103.287 22.9404 104.052 23.3178 104.352 22.9074C104.698 22.4343 103.897 21.851 103.573 21.613C102.154 20.5722 100.396 19.9405 98.8067 19.2102C95.3327 17.6142 91.4859 16.8565 87.8611 15.6711C80.0359 13.1116 71.9404 11.1677 63.8082 9.88374C61.8237 9.57042 59.818 9.52455 57.8249 9.29197C56.0594 9.08597 54.2907 9.09071 52.5253 9.30348C49.2648 9.6967 45.4848 10.5451 43.6433 13.5297C41.9809 16.2245 40.8712 19.2542 41.2954 22.4507C41.4229 23.4109 41.8294 24.5478 43.0142 24.3004C43.836 24.1287 44.2724 23.4305 44.6539 22.749C45.2304 21.7195 45.7999 20.69 46.4246 19.6881C46.6564 21.1904 45.8142 22.6676 45.9466 24.198C46.0367 25.2364 46.6105 26.8772 47.9587 26.5832C49.8067 26.1803 50.5672 23.2934 51.4557 21.9084C51.5007 22.9751 51.1268 24.0265 51.2412 25.0956C51.3541 26.1517 52.1793 27.1487 53.3383 27.004C54.4315 26.8675 55.1419 25.6963 55.6062 24.8146C56.2523 23.5876 56.7165 22.272 57.3475 21.0368C57.9389 19.879 58.6396 18.5006 60.0516 18.2831C61.3118 18.0888 62.7561 18.5386 64.0009 18.7241C67.4538 19.2387 70.8372 20.1148 74.2524 20.8227C77.9143 21.5815 81.6626 22.0425 85.2115 23.267C83.9637 24.9654 80.6981 24.5985 78.8392 24.7808C76.0299 25.0563 73.1847 25.2637 70.3914 25.6703C67.6326 26.0718 64.9315 26.7846 62.1942 27.302C59.4714 27.8168 56.7532 28.3324 54.1185 29.2102C49.2267 30.8401 44.2534 32.9029 39.9434 35.7468C37.9381 37.0702 36.1567 38.5826 34.9179 40.6714C33.6713 42.7732 33.0722 45.15 32.8437 47.5677C32.7015 49.0732 32.9431 50.376 33.2347 51.8412C33.446 52.9021 33.5144 54.6782 34.3649 55.455C35.9884 56.9376 37.3363 50.9238 37.6361 50.1975C37.8519 51.3878 37.499 58.0936 40.1039 57.5482C41.2664 57.305 41.5302 55.7093 41.723 54.7481C42.0747 52.996 42.3897 51.2087 42.9913 49.5212C43.3774 51.7949 43.5384 54.1636 44.3702 56.3352C44.9227 57.7774 46.4991 60.3364 47.5982 57.8675C48.4225 56.0158 48.1397 53.8906 48.2385 51.9247C48.3481 49.7462 48.9735 47.6448 49.1949 45.4877C49.2807 44.652 49.2031 43.7102 50.0428 43.2541C50.7637 42.8628 51.8179 42.7353 52.6051 42.5168C54.9364 41.8695 57.283 41.2745 59.6034 40.5878C61.9248 39.9005 64.214 39.0977 66.5044 38.3141C68.6949 37.5648 70.9315 37.1387 73.1486 36.497C74.4092 36.1321 75.6545 35.7504 76.9327 35.4457C77.5275 35.304 78.1296 35.1936 78.723 35.0469C79.163 34.9382 79.7426 34.5281 80.1948 34.5353C80.6603 34.5429 80.8354 34.937 81.3691 34.968C81.9438 35.0012 82.5281 34.8744 83.0995 34.8305C84.4918 34.7237 85.9717 34.5511 87.3608 34.744C86.5259 35.7343 85.3984 36.4188 84.4102 37.2391C83.2705 38.1851 82.1675 39.2067 81.1941 40.3239C79.2353 42.5718 77.3839 44.9479 75.664 47.3832C73.9674 49.7856 72.6014 52.4146 71.4137 55.1006C70.822 56.439 70.2475 57.8067 69.8387 59.2135C69.6708 59.7914 69.5337 60.3715 69.2305 60.8971C68.9524 61.3792 68.5605 61.7947 68.8892 62.3768C69.1156 62.2352 69.3189 62.0591 69.5235 61.889C69.287 63.5548 68.7767 65.1662 68.5143 66.827C68.2557 68.4631 68.2662 70.1459 68.2829 71.7983C68.3181 75.2589 68.5754 78.6411 69.2774 82.0354C69.9873 85.4677 70.8993 88.874 72.0494 92.1851C73.1564 95.3731 74.2673 98.7164 75.8126 101.721C77.463 104.93 79.4264 108.305 81.8153 111.021C80.2548 111.661 78.2689 111.541 76.6165 111.798C74.8892 112.068 73.3951 112.576 71.9231 113.531C70.4338 114.499 69.6254 115.744 69.4196 117.507C69.2733 118.762 68.8388 120.5 70.4855 120.83C71.6699 121.067 72.9939 120.677 74.1807 120.581C76.2566 120.413 78.3356 120.308 80.4161 120.217C82.4912 120.126 84.5668 120.047 86.6425 119.982C87.6189 119.952 88.5958 119.937 89.5718 119.902C90.0092 119.886 90.2744 119.879 90.6666 120.006C90.9767 120.106 90.954 120.314 91.2994 120.057C91.8563 119.643 91.7417 118.337 91.7261 117.763C91.7024 116.876 91.6184 115.98 91.4456 115.111C91.343 114.594 90.0979 111.264 91.0661 111.124C89.9413 109.888 89.492 108.123 88.9868 106.574C88.3537 104.633 87.798 102.697 87.3618 100.701C86.4299 96.4372 86.0181 92.1265 86.0181 87.7636C90.3376 90.426 94.9077 91.8682 99.9953 92.029C105.053 92.189 110.61 91.7736 115.414 90.0909C117.638 89.3115 119.63 88.2881 121.537 86.9094C122.221 86.4153 122.953 85.2961 123.85 85.3152C124.921 85.3382 126.12 85.7435 127.183 85.9168C129.216 86.2483 131.87 86.4353 133.591 87.693C134.526 88.3762 135.197 89.3324 136.031 90.1195C136.666 90.7184 137.505 91.0435 138.135 91.6424C138.815 92.2885 138.545 93.1327 139.672 93.185C140.636 93.2295 141.692 92.8419 142.523 92.3869C144.181 91.4791 145.946 89.5414 144.414 87.7025Z" fill="#575EF4"/>
<path fill-rule="evenodd" clip-rule="evenodd" d="M128.48 44.5235C130.906 46.2468 133.689 47.4241 136.224 48.9762C136.859 49.3646 138.836 50.1712 138.817 50.8918C138.805 51.3131 138.211 51.8414 137.951 52.1334C137.505 52.6336 137.086 53.139 136.675 53.6682C134.792 56.0913 133.019 58.5372 130.979 60.8386C130.672 61.1848 129.746 62.8377 129.447 62.0168C129.312 61.6445 129.424 61.2263 129.071 60.8793C128.889 60.7005 128.187 60.602 128.392 60.2186C128.528 60.2799 128.664 60.3413 128.801 60.4024C128.695 60.0961 128.702 59.7604 128.544 59.4708C128.445 59.2908 128.252 59.2057 128.185 59.0031C128.093 58.7231 128.25 58.3978 128.223 58.1092C128.198 57.8214 128.048 57.5494 127.959 57.2779C127.431 55.6684 127.242 54.046 126.972 52.3854C126.704 50.7423 126.288 49.1507 126.124 47.4893C125.951 45.7344 125.74 43.9832 125.457 42.2424C125.961 42.3131 126.349 42.8611 126.706 43.1708C127.266 43.6577 127.875 44.0939 128.48 44.5235ZM126.578 61.5127C126.462 61.4218 126.371 61.3101 126.306 61.1777C127.495 60.5886 126.778 61.5936 126.578 61.5127ZM125.855 60.2564C125.336 60.3992 124.964 60.4282 124.564 60.2149C124.526 60.1947 124.57 60.0388 124.502 60.0069C124.442 59.9791 124.351 60.0135 124.3 59.9874C124.126 59.8989 123.821 60.0928 123.791 59.754C124.453 59.5515 125.103 59.1779 125.802 59.115C126.772 59.0276 126.727 60.0157 125.855 60.2564ZM123.584 58.303C122.876 58.4683 122.294 58.8546 121.542 58.7537C120.837 58.6593 120.224 58.2935 119.668 57.872C121.06 57.4779 122.519 57.4069 123.91 57.0257C124.363 56.9016 124.958 56.5744 125.446 56.7062C125.988 56.8528 126.022 57.3606 126.185 57.8228C125.317 57.9788 124.443 58.1022 123.584 58.303ZM119.16 56.3421C118.481 56.5045 117.787 56.8594 117.218 56.2468C117.127 56.148 117.046 56.2467 117.057 55.9422C117.069 55.621 117.36 55.4142 117.611 55.3011C118.2 55.0354 119.026 55.2072 119.652 55.1681C120.651 55.106 121.667 54.8984 122.655 54.7386C123.339 54.6281 124.045 54.3827 124.744 54.4311C125.284 54.4685 125.935 54.9284 125.148 55.2639C124.432 55.5696 123.358 55.5227 122.582 55.6551C121.435 55.8507 120.292 56.0716 119.16 56.3421ZM118.497 53.1456C118.541 53.1905 118.585 53.2353 118.629 53.2802C118.622 53.2785 118.889 53.0617 118.96 53.0554C119.305 53.0254 119.651 53.0491 119.996 53.0297C120.791 52.9848 121.592 52.8464 122.373 52.6938C123.009 52.5696 123.657 52.3555 124.311 52.4091C124.878 52.4555 124.938 52.5716 124.975 53.1185C123.528 53.1185 122.038 53.0881 120.616 53.3943C119.691 53.5935 118.671 54.187 118.207 53.1172C118.304 53.1267 118.4 53.1362 118.497 53.1456ZM119.401 50.8302C119.76 51.1034 120.738 50.6491 121.168 50.6037C121.635 50.5543 122.074 50.503 122.526 50.3867C122.927 50.2834 124.255 49.7678 124.562 50.2609C125.034 51.0164 123.124 51.155 122.821 51.1924C121.551 51.3493 120.233 51.4885 118.997 51.8216C119.132 51.4912 119.267 51.1608 119.401 50.8302ZM121.143 48.2642C121.236 48.6134 124.108 47.3266 124.161 48.2618C124.201 48.9794 121.319 49.3369 120.801 49.2739C120.922 48.9435 121.245 48.6476 121.143 48.2642ZM122.108 46.0693C122.169 45.3649 122.263 45.369 122.828 45.3026C123.259 45.252 123.851 44.9995 123.739 45.7673C123.643 46.4247 122.046 46.78 122.108 46.0693ZM123.134 43.6458C123.27 43.2677 123.576 43.7767 123.583 43.9689C123.6 44.4807 123.212 44.37 122.838 44.37C122.942 44.1309 123.041 43.8892 123.134 43.6458ZM127.862 40.8073C127.785 40.7156 127.358 40.6805 127.236 40.636C126.937 40.5263 126.979 40.2926 126.596 40.5231C126.577 40.5038 126.614 40.3305 126.593 40.3225C126.582 40.3185 126.314 40.2172 126.227 40.1614C126.016 40.0266 125.827 39.8948 125.634 39.7257C125.428 39.5461 125.222 39.2854 124.987 39.1424C124.888 39.0821 124.808 38.9966 124.688 38.9782C124.379 38.9304 124.467 39.1461 124.197 39.1889C124.03 39.2153 123.909 39.0207 123.691 39.1046C123.502 39.1771 123.393 39.4413 123.309 39.5985C123.004 40.1709 122.768 40.7868 122.469 41.3652C120.942 44.3229 119.205 47.1683 117.725 50.1536C117.012 51.5917 116.269 53.0398 115.767 54.5682C115.405 55.6705 114.588 57.2807 115.291 58.3822C115.802 59.183 116.825 59.5288 117.642 59.9158C118.87 60.4981 120.002 61.2591 121.244 61.8236C122.725 62.4968 124.163 63.201 125.607 63.9527C126.223 64.2733 126.778 64.7351 127.392 65.0388C127.767 65.2245 128.347 64.9076 128.469 65.3333C128.939 64.7635 129.701 65.1434 130.245 64.7422C130.565 64.5062 130.799 64.0414 131.066 63.7508C131.466 63.3151 131.901 62.9109 132.31 62.4828C133.931 60.7824 135.429 59.0115 136.904 57.1853C138.314 55.4413 139.96 53.7936 141.151 51.8846C141.624 51.1267 141.709 50.332 141.397 49.4948C141.169 48.8841 140.621 47.9619 139.837 48.3663C140.134 47.8727 138.987 47.3456 138.64 47.2491C138.634 47.2477 138.566 47.6269 138.469 47.6174C138.503 47.6208 138.177 46.7773 138.034 46.6692C137.609 46.3474 137.092 45.9719 136.628 45.707C136.202 45.4641 135.753 45.3438 135.341 45.0719C134.841 44.7425 134.382 44.3518 133.881 44.0246C133.397 43.7088 132.857 43.3354 132.321 43.1182C131.857 42.9298 131.441 42.8929 131.023 42.5841C130.506 42.2021 130.056 41.9429 129.46 41.6797C128.945 41.4521 128.23 41.2532 127.862 40.8073Z" fill="white"/>
<path fill-rule="evenodd" clip-rule="evenodd" d="M57.5031 86.5515C57.5978 86.3289 57.6923 86.1063 57.7871 85.8839C57.9042 86.2719 57.9371 86.4649 57.5031 86.5515ZM57.6292 87.5797C57.4238 87.6164 57.5048 86.9723 57.5048 86.8601C57.8594 87.0609 57.5657 87.3016 57.6292 87.5797ZM57.3091 85.7216C57.4841 85.6182 57.6591 85.5149 57.8342 85.4115C57.5904 85.8631 57.686 85.5809 57.7866 85.8826C57.6028 85.9354 57.424 85.8738 57.3091 85.7216ZM56.2718 89.2512C55.6157 91.6317 53.5318 93.5091 51.3308 94.4815C50.066 95.0401 48.8225 95.1799 47.4567 95.1177C46.9299 95.0936 46.31 94.9225 45.8031 94.9543C45.4127 94.9788 45.4303 94.9958 45.107 95.3262C44.964 95.0628 45.0676 94.878 44.7807 94.7246C44.4227 94.5333 44.274 94.7561 44.0965 95.021C43.8641 94.7801 43.7689 94.6544 43.4678 94.5113C43.4773 94.5159 43.1795 94.5046 43.1917 94.5083C43.1379 94.4917 42.8141 94.2835 42.7127 94.2456C42.2966 94.0895 41.8155 94.0253 41.4316 93.8014C41.0958 93.6059 40.8192 93.057 40.435 93.4788C40.4346 92.7739 39.4852 92.4816 39.0402 92.1124C38.3448 91.5355 37.792 90.6814 37.4453 89.8552C37.0756 88.9741 36.9522 88.1295 36.7792 87.2215C36.6584 86.5871 35.8669 85.67 36.3422 85.0298C36.4554 85.2983 36.4023 85.5731 36.5903 85.8166C36.7596 85.4904 36.8527 85.1254 36.9292 84.7684C36.9668 84.5936 37.1845 84.0803 37.1598 83.928C37.1095 83.6162 36.7235 83.5993 36.9375 83.2171C37.3813 83.7 37.7395 82.8519 37.4042 82.5139C37.2386 82.7006 37.1779 82.9127 37.1015 83.1439C36.6651 82.2631 37.8729 82.5468 37.6087 81.7515C38.0494 81.6667 38.3028 81.5557 38.4704 81.1201C38.6568 80.6355 38.5197 80.5299 38.9429 80.2096C39.0884 80.0996 39.5001 79.9413 39.5754 79.7602C39.7212 79.4103 39.3503 79.3066 39.6751 78.9787C39.7848 79.1712 40.2124 79.5522 40.4465 79.1896C40.4934 79.1173 40.2965 79.066 40.4397 78.8995C40.6518 78.653 40.8891 78.4113 41.2478 78.4631C40.9638 77.753 42.7787 77.6968 43.2435 77.5292C43.7094 77.3615 44.1046 77.2513 44.5985 77.2124C45.092 77.1734 45.1165 77.0289 45.5343 76.7318C45.5696 77.1568 45.6719 77.0634 45.974 77.1384C46.0466 77.0138 46.1211 76.9997 46.1973 77.0964C46.2731 77.1685 46.3659 77.2024 46.4752 77.1983C46.6411 77.2069 46.8294 77.1853 47.0032 77.1888C47.4113 77.1968 47.8323 77.1628 48.2326 77.1714C48.3359 77.1541 48.4323 77.1182 48.5227 77.0636C48.5605 77.1347 48.5984 77.2059 48.636 77.2772C48.8481 77.3038 48.8645 77.5695 49.1253 77.2789C49.2025 77.6484 49.4243 77.4561 49.6585 77.5563C49.8722 77.6479 49.9062 77.7941 50.1034 77.8962C50.233 78.0013 50.372 78.0152 50.5206 77.9382C50.662 78.043 50.8055 78.1447 50.9511 78.2434C51.2194 78.3949 51.5356 78.4876 51.8183 78.6073C52.0063 78.6848 52.1932 78.7656 52.3786 78.8492C52.3841 79.073 52.4845 79.152 52.6795 79.0862C52.8557 79.2336 52.9053 79.2279 53.0763 79.4789C53.4636 80.0478 53.8072 80.4898 54.2964 80.9983C56.4226 83.2089 57.0758 86.3344 56.2718 89.2512ZM56.9243 79.8509C55.9644 78.5655 54.6057 77.0935 53.3847 76.2817C52.7658 75.87 51.8972 75.1312 51.1403 74.9135C50.9609 74.8619 50.7752 74.8585 50.5988 74.8043C50.4626 74.7625 50.3884 74.6227 50.233 74.5975C50.1244 74.5799 50.1124 74.8231 49.9969 74.8007C49.7555 74.7537 49.6025 74.5142 49.4321 74.3644C49.0659 74.9952 48.8672 73.9343 48.3296 74.6476C47.6898 73.6443 46.1866 73.8637 45.1649 73.9143C44.8619 73.9292 44.7196 74.037 44.4509 74.1169C44.2009 74.1912 44.1762 74.1721 43.9032 74.17C43.2232 74.1648 42.6196 74.2503 41.9911 74.5489C40.9352 75.0504 39.9659 75.832 38.963 76.4364C37.8421 77.112 36.8317 77.9719 35.9742 78.9599C32.8742 82.5325 32.0452 87.7473 34.5171 91.889C38.4433 98.467 48.571 99.17 54.3098 94.7067C58.7435 91.2581 60.4308 84.5455 56.9243 79.8509Z" fill="#FF7152"/>
<path fill-rule="evenodd" clip-rule="evenodd" d="M105.52 61.3399C105.41 61.6028 104.381 61.5143 104.358 61.2043C104.325 60.7412 105.711 60.8831 105.52 61.3399ZM106.613 61.1679C107.196 61.2153 108.154 61.6114 108.716 61.3721C109.574 61.0068 108.673 60.4462 108.213 60.2786C107.745 60.1081 107.047 60.1987 106.807 59.7092C106.625 59.341 107.073 58.3132 106.518 58.4784C105.935 58.6517 106.105 60.1241 105.19 59.6278C104.754 59.3909 104.932 57.9484 104.202 58.6854C104.002 58.887 103.984 59.2572 103.72 59.4075C103.45 59.5611 103.111 59.4011 102.825 59.4145C102.07 59.4498 101.83 60.1562 102.595 60.4364C102.878 60.5401 103.946 60.6667 103.299 61.1295C102.891 61.421 101.986 60.8093 101.636 61.3167C101.156 62.0138 102.444 62.0295 102.79 62.2381C103.376 62.5912 102.892 63.416 102.939 64.0034C103.01 64.9009 103.531 64.7133 103.721 63.9538C103.882 63.3094 103.682 62.3818 104.654 62.6379C106.236 63.055 103.774 65.0634 104.933 65.5773C105.672 65.905 105.777 64.1336 105.834 63.8285C106.046 62.7027 106.679 62.9654 107.637 63C108.756 63.0403 109.026 62.2123 107.841 61.9752C107.463 61.8995 106.943 61.9952 106.614 61.7543C106.42 61.6119 106.153 61.1307 106.613 61.1679Z" fill="#FF7152"/>
<path fill-rule="evenodd" clip-rule="evenodd" d="M65.29 97.9495C64.3843 97.6252 62.8689 97.6953 62.6448 98.8651C62.5511 99.3548 62.7337 99.8728 63.0719 100.229C63.4641 100.641 64.0887 100.679 64.0554 99.961C64.0322 99.4638 63.5591 99.032 64.3909 98.9318C64.9085 98.8695 65.6741 99.2566 65.6998 99.8284C65.7581 101.117 63.5271 101.218 62.7049 100.995C61.0732 100.553 61.5165 98.8441 62.637 98.0641C62.9265 97.8625 63.7571 97.5521 63.795 97.1335C63.8455 96.5783 63.1589 96.6917 62.8224 96.7648C60.3488 97.3033 59.8097 101.447 62.3943 102.228C63.568 102.583 65.221 102.217 65.9283 101.154C66.5916 100.157 66.6005 98.4187 65.29 97.9495Z" fill="white"/>
<path fill-rule="evenodd" clip-rule="evenodd" d="M32.4931 68.6156C31.7198 68.9878 30.9466 69.36 30.1735 69.7322C29.9179 69.1853 29.4861 67.6912 28.8378 67.5004C27.7884 67.1915 28.4566 68.8202 28.6378 69.1926C28.7865 69.4985 29.1317 69.9724 29.0479 70.3371C28.9355 70.8283 28.2425 71.0023 27.8798 71.2557C26.9821 71.883 26.9892 73.2004 28.2892 72.6422C29.0249 72.3262 29.9357 71.4498 30.4996 72.4448C30.7599 72.9039 31.3767 75.4687 32.021 73.7914C32.4196 72.7529 30.5009 71.674 31.4468 70.7954C31.7513 70.5128 32.1078 70.4889 32.412 70.3264C33.1466 69.9338 32.7324 69.2085 32.4931 68.6156Z" fill="#E26995"/>
<path fill-rule="evenodd" clip-rule="evenodd" d="M145.852 31.4539C145.391 31.2853 144.821 30.9561 144.308 31.0683C143.764 31.1875 143.545 31.7329 143.149 32.0607C142.072 32.9523 141.445 31.6235 140.854 30.8953C140.295 30.2077 139.614 30.0408 138.826 30.4633C138.512 30.6317 137.189 31.4035 137.419 31.8979C137.585 32.2537 138.239 31.9343 138.462 31.8566C138.946 31.6882 139.395 31.5407 139.89 31.7863C140.819 32.2468 141.059 33.5094 142.183 33.7062C143.344 33.9098 143.382 32.8045 144.211 32.3884C144.767 32.1097 145.154 32.6032 145.69 32.5049C146.201 32.4113 146.437 31.6679 145.852 31.4539Z" fill="#FF6C87"/>
<path fill-rule="evenodd" clip-rule="evenodd" d="M136.474 35.9086C136.885 35.9978 137.153 35.2011 137.41 34.999C137.837 34.664 138.576 34.5965 139.01 34.9336C139.859 35.5918 139.566 37.0126 140.774 37.383C141.854 37.7141 142.362 36.2924 143.271 35.9384C143.799 35.7326 144.379 35.5979 144.173 34.8593C144.03 34.3486 143.611 34.2175 143.155 34.4136C142.371 34.7505 142.105 36.1228 141.176 36.1473C140.215 36.1727 140.11 34.7869 139.698 34.1833C139.069 33.2633 137.775 33.041 137.04 33.9207C136.818 34.1861 135.692 35.7392 136.474 35.9086Z" fill="#FF6C87"/>
<path fill-rule="evenodd" clip-rule="evenodd" d="M117.472 20.1985C118.044 20.5896 119.183 20.576 119.709 20.0911C120.245 19.5976 119.53 19.5218 119.093 19.5369C118.758 19.5485 118.129 19.7149 118.321 19.1352C118.49 18.6208 119.424 18.8826 119.501 18.3179C118.799 18.192 118.026 18.2374 117.506 18.7894C117.13 19.1883 116.937 19.8324 117.472 20.1985Z" fill="#575EF4"/>
<defs>
<linearGradient id="paint0_linear_47_1727" x1="77.0005" y1="71.5" x2="106" y2="19.5" gradientUnits="userSpaceOnUse">
<stop stop-color="#4B5DFF"/>
<stop offset="1" stop-color="#FF6C87"/>
</linearGradient>
</defs>
</svg>
