<svg width="18" height="22" viewBox="0 0 18 22" fill="none" xmlns="http://www.w3.org/2000/svg">
<path d="M17.1451 8.91383C17.4775 6.63957 15.7456 5.41497 13.3751 4.59274L14.1449 1.51375L12.273 1.0414L11.5207 4.01543C11.0309 3.88422 10.5235 3.77051 10.0162 3.6568L10.7685 0.630285L8.89657 0.166687L8.12682 3.24568L6.93721 2.96577L4.31307 2.30974L3.84072 4.31283C3.84072 4.31283 5.23151 4.63648 5.20527 4.65397C5.46136 4.69099 5.69333 4.82527 5.85297 5.0289C6.01262 5.23253 6.08766 5.48984 6.06249 5.74736L5.18778 9.24622C5.25429 9.25828 5.31896 9.27886 5.38022 9.30745L5.18778 9.27246L3.97193 14.1621C3.94416 14.2491 3.89943 14.3297 3.84033 14.3993C3.78123 14.4689 3.70892 14.5261 3.62758 14.5675C3.54625 14.609 3.4575 14.634 3.36647 14.641C3.27543 14.6479 3.18392 14.6368 3.09721 14.6082C3.09721 14.6082 1.73266 14.2671 1.73266 14.2671L0.814209 16.4539L3.25466 17.0574L4.59297 17.4073L3.81448 20.5213L5.69511 20.9936L6.46486 17.9059C6.9722 18.0458 7.47078 18.177 7.96062 18.2908L7.19087 21.3698L9.07151 21.8334L9.85 18.7194C13.0515 19.3229 15.4569 19.0868 16.4716 16.1827C17.2851 13.856 16.4716 12.5089 14.7222 11.6342C15.3685 11.5094 15.9559 11.1754 16.3938 10.6838C16.8316 10.1922 17.0956 9.57028 17.1451 8.91383ZM12.8503 14.9231C12.273 17.2586 8.3455 15.999 7.07716 15.6841L8.10058 11.538C9.37766 11.8354 13.4538 12.4652 12.8503 14.8881V14.9231ZM13.4363 8.87884C12.9028 10.9956 9.64007 9.91975 8.57292 9.65734L9.50887 5.87857C10.5673 6.14098 13.9874 6.63082 13.4363 8.84385V8.87884Z" fill="#FFB240"/>
</svg>
