<svg width="98" height="106" viewBox="0 0 98 106" fill="none" xmlns="http://www.w3.org/2000/svg">
<rect x="21" y="29" width="48" height="48" rx="24" fill="url(#paint0_linear_441_3190)"/>
<g opacity="0.2" filter="url(#filter0_f_441_3190)">
<rect x="32" y="40" width="26" height="26" rx="13" fill="#F56C4F"/>
</g>
<g opacity="0.4" filter="url(#filter1_f_441_3190)">
<rect x="28" y="36" width="34" height="34" rx="17" fill="black"/>
</g>
<path fill-rule="evenodd" clip-rule="evenodd" d="M37.8957 47.6026C38.7765 46.4329 39.9305 45.4984 41.2559 44.8815C42.5813 44.2646 44.0376 43.9841 45.4965 44.0648C46.9554 44.1455 48.3721 44.5849 49.622 45.3443C50.8718 46.1036 51.9164 47.1597 52.6637 48.4194L53.3092 48.0596L54.3851 47.4263C53.4199 45.7969 52.0491 44.4474 50.4072 43.5102C48.7653 42.5729 46.9087 42.0801 45.0197 42.0801C43.1307 42.0801 41.2741 42.5729 39.6322 43.5102C37.9903 44.4474 36.6195 45.7969 35.6543 47.4263L35.12 48.2683L35.9735 48.7756L39.2764 50.7439C38.7362 52.1072 38.6986 53.6192 39.1704 55.0078C39.6421 56.3964 40.5924 57.5705 41.85 58.3188C43.1077 59.0671 44.5902 59.3405 46.0309 59.0898C47.4715 58.839 48.7757 58.0806 49.7087 56.951L52.115 58.3904C51.234 59.5611 50.0793 60.4962 48.7529 61.1133C47.4265 61.7303 45.9691 62.0103 44.5093 61.9285C43.0495 61.8467 41.6323 61.4057 40.3825 60.6443C39.1328 59.8829 38.0891 58.8246 37.3434 57.5628L35.64 58.5739C36.6052 60.2032 37.976 61.5527 39.6179 62.49C41.2598 63.4273 43.1164 63.9201 45.0054 63.9201C46.8944 63.9201 48.751 63.4273 50.3929 62.49C52.0348 61.5527 53.4056 60.2032 54.3708 58.5739L54.88 57.7175L54.0265 57.2101L51.3153 55.5945L48.9771 54.2415C48.6925 55.1507 48.1063 55.9347 47.3161 56.4634C46.5259 56.9921 45.5792 57.2335 44.6333 57.1476C43.6874 57.0617 42.7993 56.6536 42.1165 55.9912C41.4338 55.3287 40.9975 54.4518 40.8802 53.5061C40.7629 52.5605 40.9716 51.603 41.4716 50.7928C41.9717 49.9826 42.733 49.3685 43.6291 49.0526C44.5251 48.7366 45.5019 48.7378 46.3972 49.056C47.2924 49.3741 48.0522 49.9901 48.5503 50.8015L50.2681 49.8084C49.7635 48.9685 49.0663 48.2617 48.2346 47.7467C47.4029 47.2317 46.4606 46.9234 45.4862 46.8474C44.5118 46.7714 43.5334 46.9298 42.6323 47.3097C41.7313 47.6895 40.9336 48.2797 40.3057 49.0311L37.8957 47.6026Z" fill="#FF7152"/>
<defs>
<filter id="filter0_f_441_3190" x="-8" y="0" width="106" height="106" filterUnits="userSpaceOnUse" color-interpolation-filters="sRGB">
<feFlood flood-opacity="0" result="BackgroundImageFix"/>
<feBlend mode="normal" in="SourceGraphic" in2="BackgroundImageFix" result="shape"/>
<feGaussianBlur stdDeviation="20" result="effect1_foregroundBlur_441_3190"/>
</filter>
<filter id="filter1_f_441_3190" x="8" y="16" width="74" height="74" filterUnits="userSpaceOnUse" color-interpolation-filters="sRGB">
<feFlood flood-opacity="0" result="BackgroundImageFix"/>
<feBlend mode="normal" in="SourceGraphic" in2="BackgroundImageFix" result="shape"/>
<feGaussianBlur stdDeviation="10" result="effect1_foregroundBlur_441_3190"/>
</filter>
<linearGradient id="paint0_linear_441_3190" x1="28.0588" y1="30.7647" x2="62.6471" y2="73.1176" gradientUnits="userSpaceOnUse">
<stop stop-color="#2E3642"/>
<stop offset="1" stop-color="#404B5C"/>
</linearGradient>
</defs>
</svg>
