<svg width="14" height="14" viewBox="0 0 14 14" fill="none" xmlns="http://www.w3.org/2000/svg">
<g clip-path="url(#clip0_67_968)">
<path d="M6.70866 12.25C7.4364 12.25 8.15702 12.1067 8.82936 11.8282C9.50171 11.5497 10.1126 11.1415 10.6272 10.6269C11.1418 10.1123 11.55 9.5014 11.8285 8.82906C12.107 8.15671 12.2503 7.4361 12.2503 6.70835C12.2503 5.98061 12.107 5.26 11.8285 4.58765C11.55 3.9153 11.1418 3.30439 10.6272 2.7898C10.1126 2.27521 9.50171 1.86702 8.82936 1.58852C8.15702 1.31003 7.4364 1.16669 6.70866 1.16669C5.23892 1.16669 3.82937 1.75054 2.79011 2.7898C1.75084 3.82907 1.16699 5.23861 1.16699 6.70835C1.16699 8.17809 1.75084 9.58764 2.79011 10.6269C3.82937 11.6662 5.23892 12.25 6.70866 12.25Z" stroke="white" stroke-opacity="0.4" stroke-width="1.5" stroke-linecap="round" stroke-linejoin="round"/>
<path d="M12.8337 12.8334L11.667 11.6667" stroke="white" stroke-opacity="0.4" stroke-width="1.5" stroke-linecap="round" stroke-linejoin="round"/>
</g>
<defs>
<clipPath id="clip0_67_968">
<rect width="14" height="14" fill="white"/>
</clipPath>
</defs>
</svg>
