<svg width="20" height="20" viewBox="0 0 20 20" fill="none" xmlns="http://www.w3.org/2000/svg">
<path fill-rule="evenodd" clip-rule="evenodd" d="M6.83301 5.83887C6.4188 5.83887 6.08301 6.17465 6.08301 6.58887V11.333C6.08301 11.7472 6.4188 12.083 6.83301 12.083H11.5771C11.9914 12.083 12.3271 11.7472 12.3271 11.333C12.3271 10.9188 11.9914 10.583 11.5771 10.583H7.58301V6.58887C7.58301 6.17465 7.24722 5.83887 6.83301 5.83887Z" fill="url(#paint0_linear_47_1165)"/>
<path fill-rule="evenodd" clip-rule="evenodd" d="M13.6968 4.46967C13.4039 4.17678 12.9291 4.17678 12.6362 4.46967L6.3032 10.8026C6.0103 11.0955 6.0103 11.5704 6.3032 11.8633C6.59609 12.1562 7.07096 12.1562 7.36386 11.8633L13.6968 5.53033C13.9897 5.23744 13.9897 4.76256 13.6968 4.46967Z" fill="url(#paint1_linear_47_1165)"/>
<path fill-rule="evenodd" clip-rule="evenodd" d="M17.4245 14.6421C17.2932 14.2493 16.8683 14.0372 16.4755 14.1685C12.2772 15.5715 7.72233 15.5715 3.52409 14.1685C3.13123 14.0372 2.70633 14.2493 2.57504 14.6421C2.44375 15.035 2.65579 15.4599 3.04865 15.5912C7.55546 17.0973 12.4441 17.0973 16.9509 15.5912C17.3438 15.4599 17.5558 15.035 17.4245 14.6421Z" fill="url(#paint2_linear_47_1165)"/>
<defs>
<linearGradient id="paint0_linear_47_1165" x1="5.85863" y1="8.96093" x2="36.8132" y2="8.96093" gradientUnits="userSpaceOnUse">
<stop stop-color="#4B5DFF"/>
<stop offset="1" stop-color="#FF6C87"/>
</linearGradient>
<linearGradient id="paint1_linear_47_1165" x1="5.80205" y1="8.16648" x2="44.6332" y2="8.16648" gradientUnits="userSpaceOnUse">
<stop stop-color="#4B5DFF"/>
<stop offset="1" stop-color="#FF6C87"/>
</linearGradient>
<linearGradient id="paint2_linear_47_1165" x1="1.99976" y1="15.4252" x2="75.9998" y2="15.4252" gradientUnits="userSpaceOnUse">
<stop stop-color="#4B5DFF"/>
<stop offset="1" stop-color="#FF6C87"/>
</linearGradient>
</defs>
</svg>
