<svg width="17" height="18" viewBox="0 0 17 18" fill="none" xmlns="http://www.w3.org/2000/svg">
<path fill-rule="evenodd" clip-rule="evenodd" d="M2.30047 4.55151C3.03048 3.58748 3.98684 2.81733 5.08534 2.30888C6.18384 1.80044 7.39078 1.56929 8.59987 1.63579C9.80897 1.70229 10.9831 2.06441 12.019 2.69025C13.0548 3.3161 13.9205 4.18647 14.5399 5.22472L15.0749 4.92815L15.9666 4.4062C15.1666 3.06336 14.0305 1.95112 12.6698 1.17864C11.309 0.406169 9.7703 0 8.20471 0C6.63913 0 5.10044 0.406169 3.73967 1.17864C2.37889 1.95112 1.24279 3.06336 0.442855 4.4062L0 5.10016L0.70738 5.51832L3.44476 7.14053C2.99702 8.26412 2.96585 9.51026 3.35686 10.6547C3.74788 11.7992 4.5354 12.7669 5.57773 13.3836C6.62006 14.0003 7.84875 14.2256 9.04273 14.019C10.2367 13.8123 11.3176 13.1873 12.0908 12.2563L14.0852 13.4426C13.355 14.4074 12.398 15.1782 11.2987 15.6867C10.1994 16.1953 8.99153 16.426 7.78169 16.3586C6.57186 16.2912 5.39725 15.9277 4.36151 15.3002C3.32577 14.6727 2.46074 13.8005 1.84275 12.7605L0.430967 13.5938C1.2309 14.9366 2.367 16.0489 3.72778 16.8214C5.08856 17.5938 6.62724 18 8.19283 18C9.75841 18 11.2971 17.5938 12.6579 16.8214C14.0186 16.0489 15.1548 14.9366 15.9547 13.5938L16.3767 12.888L15.6694 12.4698L13.4224 11.1382L11.4845 10.0232C11.2486 10.7725 10.7628 11.4187 10.1079 11.8544C9.45302 12.2901 8.66841 12.4891 7.88447 12.4183C7.10053 12.3475 6.36447 12.0112 5.79861 11.4652C5.23275 10.9192 4.87117 10.1965 4.77394 9.41708C4.6767 8.63768 4.84969 7.84855 5.26413 7.18082C5.67858 6.51309 6.30954 6.00697 7.05216 5.74656C7.79478 5.48616 8.60435 5.48715 9.34633 5.74936C10.0883 6.01158 10.718 6.51924 11.1308 7.18798L12.5545 6.36946C12.1363 5.67731 11.5585 5.09478 10.8691 4.67032C10.1798 4.24587 9.39892 3.99175 8.59135 3.92909C7.78378 3.86644 6.97289 3.99706 6.2261 4.3101C5.47931 4.62314 4.81821 5.10955 4.29778 5.72888L2.30047 4.55151Z" fill="#FF7152"/>
</svg>
